<?xml version="1.0" encoding="UTF-8"?>
<svg version="1.1" xmlns="http://www.w3.org/2000/svg" width="500" height="500">
<path d="M0 0 C1.78125 1.41796875 1.78125 1.41796875 3.5 3.1875 C19.33553572 17.71086327 43.84351971 18.4161756 64.1875 18.3125 C64.95180328 18.31034485 65.71610657 18.3081897 66.50357056 18.30596924 C89.70196144 18.20126342 113.64344556 16.35655444 131 -1 C135.37060991 -0.6461296 139.0336909 0.61444386 143 2.4375 C143.99 2.86933594 144.98 3.30117187 146 3.74609375 C150.38315075 7.03916404 152.39383789 11.24997826 155 16 C156.03184334 17.75739385 157.06963354 19.51130929 158.11328125 21.26171875 C159.17980478 23.07024334 160.24620814 24.87883881 161.3125 26.6875 C171.16169652 43.67821316 171.16169652 43.67821316 181.80859375 60.16796875 C184.20180227 63.84801727 185.72553996 66.51484387 185 71 C183.4430172 73.32111089 181.91346119 75.37651026 180.125 77.5 C175.47135138 82.70368858 175.47135138 82.70368858 173 89 C174.31393826 91.71363474 175.61494178 93.92061623 177.3125 96.375 C178.24456948 97.7948646 179.17553253 99.21545605 180.10546875 100.63671875 C180.5854834 101.35778809 181.06549805 102.07885742 181.56005859 102.82177734 C183.8168812 106.2357094 185.98437204 109.69987678 188.125 113.1875 C188.51469971 113.79835449 188.90439941 114.40920898 189.3059082 115.03857422 C191.40246844 118.45409947 192.93110412 120.99362948 192 125 C189.828125 127.45703125 189.828125 127.45703125 187 130 C185.23791033 131.88460182 183.48786238 133.78053425 181.75 135.6875 C180.87859375 136.64011719 180.0071875 137.59273437 179.109375 138.57421875 C176.99506137 140.8020154 176.99506137 140.8020154 176 143 C175.34 143 174.68 143 174 143 C173.78730469 143.53109375 173.57460938 144.0621875 173.35546875 144.609375 C171.47749337 147.92153908 168.91942494 150.50913182 166.3125 153.25 C165.21545091 154.42122447 164.11909248 155.59309627 163.0234375 156.765625 C162.49717773 157.32701172 161.97091797 157.88839844 161.42871094 158.46679688 C157.53775019 162.64233233 153.84090627 166.97874375 150.203125 171.375 C149.70627197 171.97183594 149.20941895 172.56867188 148.69750977 173.18359375 C147.70313118 174.37974196 146.713884 175.58017762 145.73022461 176.78515625 C144.53027423 178.22739815 143.26966718 179.61873686 142 181 C141.34 181 140.68 181 140 181 C139.75765625 181.55042969 139.5153125 182.10085938 139.265625 182.66796875 C137.71445327 185.52614628 135.85746492 187.83587031 133.75 190.3125 C133.00234375 191.21613281 132.2546875 192.11976563 131.484375 193.05078125 C129 195 129 195 126.0703125 194.921875 C121.28479004 193.48500057 116.67518058 191.76744632 112 190 C112 194.95 112 199.9 112 205 C102.90675991 209.65235539 93.71195241 214.0319835 84.4375 218.3125 C83.29555176 218.84004883 82.15360352 219.36759766 80.97705078 219.91113281 C65.97992408 226.80825469 65.97992408 226.80825469 59 225 C55.51784699 223.66334397 52.20736544 222.04622112 48.875 220.375 C47.9564624 219.92568115 47.0379248 219.4763623 46.09155273 219.01342773 C43.38830907 217.68746437 40.69335654 216.34591035 38 215 C36.5770146 214.29518579 35.1538567 213.59071966 33.73046875 212.88671875 C30.47915969 211.27315552 27.23863104 209.63887772 24 208 C22.90558594 207.46246094 21.81117188 206.92492187 20.68359375 206.37109375 C18 205 18 205 17 204 C16.76472227 201.65012738 16.58613583 199.29443961 16.4375 196.9375 C16.35371094 195.64714844 16.26992187 194.35679687 16.18359375 193.02734375 C16.12300781 192.02832031 16.06242187 191.02929688 16 190 C14.77023438 190.54140625 14.77023438 190.54140625 13.515625 191.09375 C12.43796875 191.5578125 11.3603125 192.021875 10.25 192.5 C9.18265625 192.9640625 8.1153125 193.428125 7.015625 193.90625 C4 195 4 195 0 195 C0 194.34 0 193.68 0 193 C-0.66 193 -1.32 193 -2 193 C-3.41015625 191.6015625 -3.41015625 191.6015625 -5.0625 189.625 C-7.77923786 186.42453655 -10.54335219 183.28693937 -13.375 180.1875 C-17.37782994 175.7550648 -21.17223692 171.18088526 -24.93359375 166.54296875 C-28.25601501 162.45431802 -31.57446824 158.4231156 -35.3046875 154.69921875 C-38.23846351 151.76119089 -41.06483921 148.74302088 -43.875 145.6875 C-44.4023877 145.11427002 -44.92977539 144.54104004 -45.47314453 143.95043945 C-51.66919035 137.19950966 -57.61105598 130.42213535 -63 123 C-60.03893208 115.43282642 -55.81735099 108.74319601 -51.3515625 101.9765625 C-50.89209229 101.26943115 -50.43262207 100.5622998 -49.95922852 99.83374023 C-49.0400485 98.42131032 -48.10849936 97.01684065 -47.16381836 95.62133789 C-44.6656068 91.80750281 -44.6656068 91.80750281 -43.9375 87.40234375 C-45.36381656 84.17740006 -47.26432957 81.64970401 -49.4375 78.875 C-56.02856648 70.39019211 -56.02856648 70.39019211 -55.828125 67.65234375 C-54.86388228 64.56403806 -53.50714242 62.28311757 -51.75 59.5625 C-51.02254541 58.41675476 -50.29746746 57.26949858 -49.57421875 56.12109375 C-49.16864746 55.47769043 -48.76307617 54.83428711 -48.34521484 54.17138672 C-45.67812894 49.86629379 -43.12955749 45.49018929 -40.5625 41.125 C-39.43638193 39.21603727 -38.31008193 37.30718185 -37.18359375 35.3984375 C-35.67107593 32.83422253 -34.1588101 30.26986813 -32.64892578 27.70410156 C-30.77537841 24.52416661 -28.89058098 21.35329519 -26.9609375 18.20703125 C-25.72354101 16.18332106 -24.51592032 14.14081592 -23.3515625 12.07421875 C-18.82815611 4.62714725 -9.23770285 -3.35916467 0 0 Z M13 37 C12.67 37.66 12.34 38.32 12 39 C15.48466725 42.5935631 19.13260095 45.903675 22.9375 49.15625 C25.388211 51.34703711 27.67736185 53.6739209 30 56 C32.04246866 57.9387051 34.1121881 59.84656189 36.1875 61.75 C36.72052734 62.24371094 37.25355469 62.73742187 37.80273438 63.24609375 C40.68080594 65.929262 40.68080594 65.929262 44 68 C44.4140625 70.50390625 44.4140625 70.50390625 44.625 73.5625 C44.69976562 74.57441406 44.77453125 75.58632812 44.8515625 76.62890625 C44.90054688 77.41136719 44.94953125 78.19382812 45 79 C40.3940173 76.74328205 35.9046182 74.32855063 31.4375 71.8125 C30.39348022 71.22529175 30.39348022 71.22529175 29.32836914 70.6262207 C23.73092169 67.45695093 18.252216 64.12629989 12.7890625 60.73046875 C7.24289221 56.79124727 7.24289221 56.79124727 1 55 C-0.27694194 56.62973022 -0.27694194 56.62973022 -1.49609375 58.76171875 C-1.97240234 59.55126953 -2.44871094 60.34082031 -2.93945312 61.15429688 C-3.43380859 61.99025391 -3.92816406 62.82621094 -4.4375 63.6875 C-4.92798828 64.50412109 -5.41847656 65.32074219 -5.92382812 66.16210938 C-6.87185099 67.74214748 -7.81273358 69.32649689 -8.74560547 70.91552734 C-9.7563822 72.59517152 -10.85220935 74.22346888 -11.97265625 75.83203125 C-12.48119141 76.90517578 -12.48119141 76.90517578 -13 78 C-11.81379677 81.09288295 -10.07542901 83.18343952 -7.77734375 85.53125 C-7.15666016 86.17707031 -6.53597656 86.82289063 -5.89648438 87.48828125 C-4.58859208 88.83138102 -3.27868751 90.17252414 -1.96679688 91.51171875 C-1.34740234 92.15753906 -0.72800781 92.80335938 -0.08984375 93.46875 C0.47871338 94.05076172 1.04727051 94.63277344 1.63305664 95.23242188 C3.16015837 97.20709888 3.72455166 98.5249974 4 101 C2.55859375 103.69921875 2.55859375 103.69921875 0.4375 106.6875 C-0.29339844 107.74453125 -1.02429688 108.8015625 -1.77734375 109.890625 C-3.1486152 111.80895905 -4.53383808 113.71751276 -5.94140625 115.609375 C-6.49699219 116.37765625 -7.05257812 117.1459375 -7.625 117.9375 C-8.13289063 118.60652344 -8.64078125 119.27554688 -9.1640625 119.96484375 C-10.23350309 122.00534767 -10.23350309 122.00534767 -9.45703125 124.28515625 C-7.54298145 127.85154931 -5.35098629 131.16468809 -3.0625 134.5 C-0.26666981 138.61031804 2.49556881 142.70196627 5 147 C7.7806695 145.67647679 10.27854504 144.20143922 12.79296875 142.42578125 C13.50646484 141.92240234 14.21996094 141.41902344 14.95507812 140.90039062 C16.06012695 140.11438477 16.06012695 140.11438477 17.1875 139.3125 C17.90486328 138.80783203 18.62222656 138.30316406 19.36132812 137.78320312 C20.82900685 136.7438711 22.28559018 135.6887099 23.73120117 134.61889648 C26 133 26 133 28.52856445 131.50805664 C32.27874727 129.11302237 34.60697408 127.48828298 35.77270508 123.07397461 C36.03152556 119.6089546 35.9835874 116.28230629 35.8125 112.8125 C35.80541016 111.63751953 35.79832031 110.46253906 35.79101562 109.25195312 C35.88677129 103.0259728 35.88677129 103.0259728 33.12890625 97.71948242 C30.60411831 95.6802529 28.21826057 94.65161121 25.1875 93.5 C21.69523611 92.12259009 18.39181061 90.77149899 15.1875 88.8125 C11.74761014 86.85648419 8.81965116 85.93542477 5 85 C5.6496875 83.73542969 5.6496875 83.73542969 6.3125 82.4453125 C6.869375 81.34960938 7.42625 80.25390625 8 79.125 C8.556875 78.03445313 9.11375 76.94390625 9.6875 75.8203125 C11.14064094 73.21624918 11.14064094 73.21624918 11 71 C16.05282682 72.93512516 20.21657441 75.3894737 24.66796875 78.453125 C27.65750553 80.43613432 30.7676744 82.12810121 33.921875 83.83203125 C35.83674499 84.90824577 37.63216571 86.06366439 39.4375 87.3125 C41.76701788 89.18333019 41.76701788 89.18333019 44 89 C43.97643433 90.38505737 43.97643433 90.38505737 43.95239258 91.7980957 C43.90125168 95.22539889 43.86364465 98.65229642 43.83520508 102.07983398 C43.82012232 103.56297199 43.79965311 105.04606544 43.77368164 106.52905273 C43.73727384 108.66140745 43.72026927 110.79317235 43.70703125 112.92578125 C43.68346558 114.85031128 43.68346558 114.85031128 43.65942383 116.8137207 C43.73560954 119.93804022 43.73560954 119.93804022 45.29663086 121.86694336 C48.17544079 123.7818863 51.43216349 124.4508131 54.75 125.25 C55.78640625 125.5284375 55.78640625 125.5284375 56.84375 125.8125 C57.52953125 125.98265625 58.2153125 126.1528125 58.921875 126.328125 C59.84371582 126.55870605 59.84371582 126.55870605 60.78417969 126.79394531 C66.60796079 127.33551332 72.37290453 125.48291758 77.9375 123.9375 C78.62134766 123.75123047 79.30519531 123.56496094 80.00976562 123.37304688 C81.67420293 122.91910943 83.33725312 122.46009084 85 122 C84.98316162 121.0620459 84.96632324 120.1240918 84.94897461 119.15771484 C84.90760332 115.65610073 84.9067645 112.15922863 84.93286133 108.65771484 C84.93593205 107.14659416 84.9231371 105.6353507 84.89379883 104.12451172 C84.66787762 91.66187633 84.66787762 91.66187633 87.7121582 87.86401367 C90.06461522 86.28297334 92.41317821 85.1541019 95 84 C96.71830735 82.94014947 98.42270675 81.8574556 100.11328125 80.75390625 C101.84492414 79.68777796 103.57800639 78.62398411 105.3125 77.5625 C106.19228516 77.00884766 107.07207031 76.45519531 107.97851562 75.88476562 C108.82736328 75.36720703 109.67621094 74.84964844 110.55078125 74.31640625 C111.31044189 73.84662354 112.07010254 73.37684082 112.8527832 72.89282227 C115 72 115 72 117.18310547 72.23266602 C119.80451319 73.33977223 120.48639789 74.89907522 121.8125 77.375 C122.25207031 78.16648437 122.69164062 78.95796875 123.14453125 79.7734375 C124 82 124 82 123 85 C120.31616211 86.53393555 120.31616211 86.53393555 116.77734375 88.13671875 C116.15726944 88.42102249 115.53719513 88.70532623 114.89833069 88.99824524 C112.91571534 89.90454491 110.92685929 90.79611539 108.9375 91.6875 C107.59266274 92.29917204 106.24825566 92.91179082 104.90429688 93.52539062 C101.60778652 95.02794706 98.30552531 96.51736306 95 98 C92.68001915 114.23758648 92.68001915 114.23758648 96.5234375 129.43847656 C100.40981519 133.26047149 105.02281177 135.65739212 109.92285156 137.95800781 C112.71525232 139.35880312 114.95773007 141.2123708 117.3125 143.25 C120.38197296 145.86496682 120.65970232 146 125 146 C126.89362246 144.04088557 126.89362246 144.04088557 128.5 141.4375 C129.10328125 140.52484375 129.7065625 139.6121875 130.328125 138.671875 C132.31854279 135.49092695 134.19405037 132.28940826 136 129 C136.598125 128.13375 137.19625 127.2675 137.8125 126.375 C139.19745764 124.06962245 139.19745764 124.06962245 138.9375 121.5 C137.78812267 118.43499379 136.08371064 116.52548675 134 114 C132.54185505 112.22509465 131.10438289 110.43301509 129.6875 108.625 C128.96949219 107.73039062 128.25148438 106.83578125 127.51171875 105.9140625 C125.49531367 102.02714211 125.73615949 100.16323933 127 96 C128.74233068 93.85160547 130.28036212 92.18368158 132.3125 90.375 C137.61392493 85.58277708 137.61392493 85.58277708 142 80 C141.87844069 76.22008446 140.47641822 73.83971368 138.3125 70.8125 C135.41048128 66.66177611 132.86903231 62.38604115 130.39453125 57.96875 C129.07682548 55.69707312 129.07682548 55.69707312 126 55 C123.41233371 56.30452598 121.01882538 57.66558542 118.5625 59.1875 C117.82547852 59.63222656 117.08845703 60.07695312 116.32910156 60.53515625 C113.88044338 62.01436236 111.44035332 63.50713855 109 65 C106.30310408 66.63724282 103.60388048 68.27048898 100.90209961 69.8996582 C99.16193056 70.94971879 97.42436308 72.00410539 95.68969727 73.06323242 C91.88081715 75.3698893 88.23747806 77.55305627 84 79 C84.19073095 70.07032358 84.19073095 70.07032358 86.9375 66.4375 C87.948125 65.633125 88.95875 64.82875 90 64 C91.60978674 62.54787278 93.21335231 61.08883519 94.8125 59.625 C98.51045376 56.31544079 102.230803 53.03321149 105.97265625 49.7734375 C109.66957793 46.53952142 113.33314248 43.267917 117 40 C116.67 39.01 116.34 38.02 116 37 C108.39680806 39.41294057 101.06122646 42.33851832 93.6875 45.375 C91.96756836 46.07882813 91.96756836 46.07882813 90.21289062 46.796875 C89.07400391 47.26351562 87.93511719 47.73015625 86.76171875 48.2109375 C85.6329834 48.66952148 84.50424805 49.12810547 83.34130859 49.60058594 C81.13782137 50.5234552 78.95193727 51.48970129 76.78759766 52.50097656 C69.08428131 56.0345631 64.36894852 56.85221772 56.36035156 54.08935547 C53.41141933 52.94663147 50.52031172 51.70975708 47.625 50.4375 C46.58512939 49.99293457 45.54525879 49.54836914 44.47387695 49.09033203 C41.31135934 47.73721023 38.15544058 46.36952986 35 45 C32.22988149 43.80736811 29.45812898 42.61891723 26.68310547 41.43774414 C25.05327014 40.74368494 23.42585961 40.04389605 21.80126953 39.33764648 C17.55420092 37.50942008 17.55420092 37.50942008 13 37 Z M34.609375 133.23046875 C33.6520016 134.21201994 32.69911287 135.19795903 31.75 136.1875 C25.66007238 142.41992836 25.66007238 142.41992836 22.625 144.875 C19.87226123 147.10340757 17.4650132 149.46248641 15 152 C16.44575901 155.33865998 18.26714538 157.48071403 20.875 160 C21.55304688 160.66 22.23109375 161.32 22.9296875 162 C23.61289063 162.66 24.29609375 163.32 25 164 C25.58523437 164.74378906 26.17046875 165.48757813 26.7734375 166.25390625 C29.99381006 168.77935631 32.8784009 168.31448184 36.75 167.9375 C37.48919678 167.88021729 38.22839355 167.82293457 38.98999023 167.76391602 C46.77840259 167.08274988 54.35014364 165.58510537 62 164 C62 156.74 62 149.48 62 142 C58.21054679 140.161966 54.41862334 138.32938946 50.625 136.5 C49.54476562 135.97535156 48.46453125 135.45070313 47.3515625 134.91015625 C46.3203125 134.41386719 45.2890625 133.91757812 44.2265625 133.40625 C43.27346191 132.94541016 42.32036133 132.48457031 41.33837891 132.00976562 C37.80956288 130.48594196 37.51320106 130.52118005 34.609375 133.23046875 Z M80.625 135.3125 C79.76132813 135.71662109 78.89765625 136.12074219 78.0078125 136.53710938 C77.1725 136.93349609 76.3371875 137.32988281 75.4765625 137.73828125 C74.71424316 138.09962158 73.95192383 138.46096191 73.16650391 138.83325195 C70.8523179 140.07953265 68.91487573 141.18855864 67 143 C66.45162405 145.21269202 66.45162405 145.21269202 66.609375 147.66796875 C66.62226563 148.56064453 66.63515625 149.45332031 66.6484375 150.37304688 C66.68195313 151.30181641 66.71546875 152.23058594 66.75 153.1875 C66.76804688 154.12787109 66.78609375 155.06824219 66.8046875 156.03710938 C66.8518345 158.35909889 66.91761769 160.6790369 67 163 C69.99776371 164.67923266 72.55964666 165.39440056 75.95703125 165.8515625 C77.37918945 166.04492188 77.37918945 166.04492188 78.83007812 166.2421875 C80.30637695 166.43167969 80.30637695 166.43167969 81.8125 166.625 C82.78509766 166.7590625 83.75769531 166.893125 84.75976562 167.03125 C94.27190285 168.7422251 94.27190285 168.7422251 103 166 C109.69404288 159.79826221 109.69404288 159.79826221 114 152 C111.10944241 149.01911249 108.14029165 146.21801759 105 143.5 C101.05976131 140.08562023 97.39545572 136.47519605 93.8125 132.6875 C89.87826917 129.02459543 84.78733317 133.32677153 80.625 135.3125 Z M39 173 C39 177.29 39 181.58 39 186 C42.99147807 187.69050836 46.9898046 189.35502993 51 191 C51.97839844 191.41507813 52.95679688 191.83015625 53.96484375 192.2578125 C55.34349609 192.81082031 55.34349609 192.81082031 56.75 193.375 C57.97976562 193.88160156 57.97976562 193.88160156 59.234375 194.3984375 C66.49197174 195.9770673 73.19438839 193.08303151 79.875 190.5 C80.72835937 190.17902344 81.58171875 189.85804688 82.4609375 189.52734375 C86.79316118 187.90868616 86.79316118 187.90868616 91 186 C91 182.04 91 178.08 91 174 C85.01334937 171.90419709 85.01334937 171.90419709 79 173 C77.62131719 174.62935241 76.28725907 176.29749607 75 178 C69.97543816 181.28529043 63.73338828 180.82204109 58 180 C54.39550963 178.06414521 51.83260356 175.66520713 50 172 C46.07251611 171.88448577 43.00216342 172.33297276 39 173 Z " fill="#8048ED" transform="translate(171,179)"/>
<path d="M0 0 C3.42104997 1.97660665 4.72952628 3.15251566 5.9375 6.9375 C6.00382635 10.18749133 5.44225173 12.11549654 4 15 C3.34 15 2.68 15 2 15 C2.29769287 15.52956299 2.59538574 16.05912598 2.90209961 16.60473633 C4.24990512 19.00583566 5.59374141 21.40913369 6.9375 23.8125 C7.40607422 24.64587891 7.87464844 25.47925781 8.35742188 26.33789062 C9.0293457 27.54155273 9.0293457 27.54155273 9.71484375 28.76953125 C10.33540649 29.87711792 10.33540649 29.87711792 10.96850586 31.00708008 C12 33 12 33 13 36 C18.18734716 31.70940169 22.76147635 27.16254875 27.1796875 22.0859375 C33.10211268 15.29929577 33.10211268 15.29929577 37 14 C37.20157715 14.51908936 37.4031543 15.03817871 37.61083984 15.57299805 C38.53196813 17.94459917 39.45348079 20.31605076 40.375 22.6875 C40.85066406 23.91243164 40.85066406 23.91243164 41.3359375 25.16210938 C41.6453125 25.95810547 41.9546875 26.75410156 42.2734375 27.57421875 C42.57217773 28.34556152 42.87091797 29.1169043 43.17871094 29.91162109 C43.8359306 31.58280332 44.52591274 33.24108707 45.2265625 34.89453125 C46 37 46 37 46 40 C48.00387241 38.67220612 50.00328625 37.33849282 52 36 C52.56557617 35.62423828 53.13115234 35.24847656 53.71386719 34.86132812 C55.45563418 33.68561062 57.16555799 32.47213501 58.875 31.25 C59.46796875 30.858125 60.0609375 30.46625 60.671875 30.0625 C63.04027779 28.33804083 64.83579385 26.9478084 65.35131836 23.97216797 C65.33344536 21.97808395 65.17266602 19.98667486 65 18 C66.17013226 14.5796134 66.87310723 14.08459518 70 12 C74.98885232 11.53806923 77.98880248 11.93261366 82 15 C83.56935594 18.13871188 83.35201103 20.53855822 83 24 C80.875 26.9375 80.875 26.9375 78 29 C74.6875 29.3125 74.6875 29.3125 72 29 C71.88269531 30.299375 71.76539063 31.59875 71.64453125 32.9375 C71.10448387 37.77995634 70.00221179 42.31729579 68.6875 47 C67.14186014 52.64239546 65.68109885 58.2785707 64.42431641 63.99267578 C62.17868265 74.11717299 60.30720918 81.12882406 51.6328125 87.3984375 C35.07914999 97.46817286 16.06135061 98.4029368 -2.75 98.3125 C-3.53892639 98.31067719 -4.32785278 98.30885437 -5.14068604 98.30697632 C-26.1088171 98.22548225 -48.79970409 97.13939158 -65 82 C-67.80299902 78.17419765 -68.75615169 74.54576836 -69.75 69.9375 C-70.08079921 68.44344708 -70.41435385 66.95000275 -70.75 65.45703125 C-70.93949219 64.61350098 -71.12898438 63.7699707 -71.32421875 62.90087891 C-73.00346845 55.69248119 -74.87871746 48.52913706 -76.71386719 41.35913086 C-77.00938477 40.1913208 -77.30490234 39.02351074 -77.609375 37.8203125 C-77.87717773 36.77117676 -78.14498047 35.72204102 -78.42089844 34.64111328 C-79 32 -79 32 -79 29 C-80.11375 29.12375 -80.11375 29.12375 -81.25 29.25 C-84 29 -84 29 -86.25 27.3125 C-88.22519841 24.70241639 -88.84101533 23.2591858 -89 20 C-88.23355683 17.07358062 -87.37191157 15.39946058 -85.3125 13.1875 C-82.03424007 11.50406922 -79.63361098 11.61068454 -76 12 C-73.625 12.9375 -73.625 12.9375 -72 15 C-71.57156616 17.26213069 -71.37460953 19.44637559 -71.2734375 21.74609375 C-70.80938857 25.57118281 -69.61250692 27.4440486 -66.7578125 30.03515625 C-65.88898438 30.70417969 -65.02015625 31.37320313 -64.125 32.0625 C-63.26132813 32.73410156 -62.39765625 33.40570313 -61.5078125 34.09765625 C-60.68023437 34.72542969 -59.85265625 35.35320312 -59 36 C-57.91332031 36.86431641 -57.91332031 36.86431641 -56.8046875 37.74609375 C-55.09251279 39.19019855 -55.09251279 39.19019855 -53 39 C-52.7733667 38.34926514 -52.5467334 37.69853027 -52.31323242 37.02807617 C-51.2801996 34.07802093 -50.2340236 31.13279497 -49.1875 28.1875 C-48.83107422 27.16333984 -48.47464844 26.13917969 -48.10742188 25.08398438 C-47.75615234 24.10107422 -47.40488281 23.11816406 -47.04296875 22.10546875 C-46.72352295 21.19949951 -46.40407715 20.29353027 -46.07495117 19.36010742 C-45.00034215 17.00075121 -43.94892434 15.67709429 -42 14 C-39.43326478 16.53741915 -36.87240443 19.08069115 -34.3125 21.625 C-33.59126953 22.33785156 -32.87003906 23.05070312 -32.12695312 23.78515625 C-28.18967621 27.70445473 -24.47015607 31.6605938 -21 36 C-19.83308014 34.14665669 -18.66862781 32.29172077 -17.515625 30.4296875 C-16.459582 28.73675259 -15.38517202 27.05519554 -14.296875 25.3828125 C-13.74515625 24.51398438 -13.1934375 23.64515625 -12.625 22.75 C-12.10164063 21.94046875 -11.57828125 21.1309375 -11.0390625 20.296875 C-9.79714232 18.08446509 -9.79714232 18.08446509 -10.2734375 15.828125 C-10.99101572 13.94692687 -10.99101572 13.94692687 -12 12 C-12.08224858 8.90392827 -11.79544717 5.99527002 -11 3 C-7.64045209 -0.16757374 -4.51167642 -0.65795281 0 0 Z " fill="#8047ED" transform="translate(239,95)"/>
<path d="M0 0 C4.75520345 0.74689059 7.79533655 2.44195428 11.7578125 5.09765625 C14.45015041 6.67737741 16.71172807 7.6538181 19.6171875 8.68359375 C25.04449863 10.87804747 29.7278289 12.95979316 33 18 C35.59677594 28.69194875 34.73953411 40.10910289 34 51 C36.85112955 51.70297692 39.70471464 52.38759044 42.5625 53.0625 C43.36236328 53.26166016 44.16222656 53.46082031 44.98632812 53.66601562 C52.29148159 55.36558194 58.03749633 54.35158751 65.25 52.4375 C68.33738644 51.61863735 70.80120789 51 74 51 C73.97381592 50.05157227 73.94763184 49.10314453 73.9206543 48.12597656 C73.83532916 44.5997801 73.77270471 41.07468335 73.7253418 37.54785156 C73.70022897 36.0229357 73.66613117 34.49813985 73.62280273 32.97363281 C73.56199956 30.77899574 73.53376113 28.5859519 73.51171875 26.390625 C73.48553467 25.07094727 73.45935059 23.75126953 73.43237305 22.39160156 C74 19 74 19 76.16699219 16.76977539 C77.56933105 15.89373657 77.56933105 15.89373657 79 15 C79.92369385 14.39051514 80.8473877 13.78103027 81.79907227 13.15307617 C84.47341958 11.50441106 87.15041578 9.86060984 89.83862305 8.23461914 C91.56825347 7.18400522 93.28678756 6.11660653 95.00585938 5.04882812 C96.64458008 4.05592773 96.64458008 4.05592773 98.31640625 3.04296875 C99.31099854 2.43477295 100.30559082 1.82657715 101.33032227 1.19995117 C104 0 104 0 106.24438477 0.17578125 C108.92059031 1.43219481 109.87221476 3.30907971 111.375 5.8125 C111.91898437 6.68519531 112.46296875 7.55789063 113.0234375 8.45703125 C114 11 114 11 113.42431641 12.97045898 C111.4438462 15.79247627 109.31732846 16.6011469 106.1875 18.015625 C105.02992188 18.54414063 103.87234375 19.07265625 102.6796875 19.6171875 C102.07608398 19.88499023 101.47248047 20.15279297 100.85058594 20.42871094 C99.00107133 21.24952455 97.16031085 22.08778756 95.3203125 22.9296875 C86.31750308 27 86.31750308 27 84 27 C84 36.57 84 46.14 84 56 C85.32 56.66 86.64 57.32 88 58 C89.16808129 58.76899231 90.31940145 59.56401216 91.453125 60.3828125 C92.071875 60.82753906 92.690625 61.27226562 93.328125 61.73046875 C93.96234375 62.19066406 94.5965625 62.65085937 95.25 63.125 C96.22453125 63.82689453 96.22453125 63.82689453 97.21875 64.54296875 C98.81435483 65.69274282 100.40743025 66.84602566 102 68 C100.68 68.33 99.36 68.66 98 69 C98 68.34 98 67.68 98 67 C97.01 67.495 97.01 67.495 96 68 C95.34786708 70.02463255 95.34786708 70.02463255 95 72 C96.32 72 97.64 72 99 72 C99 73.65 99 75.3 99 77 C97.35975327 75.59895591 95.72047347 74.1967649 94.0859375 72.7890625 C92.66098462 71.5669119 91.22829905 70.35373454 89.7890625 69.1484375 C89.07492187 68.54257812 88.36078125 67.93671875 87.625 67.3125 C86.95726562 66.75175781 86.28953125 66.19101562 85.6015625 65.61328125 C84 64 84 64 83 61 C77.51014403 61.56731421 73.20377771 63.55305487 68.3125 65.9375 C67.55388672 66.29779297 66.79527344 66.65808594 66.01367188 67.02929688 C62.84376663 68.54850124 59.93378397 70.04414402 57 72 C56.58472876 74.12694665 56.58472876 74.12694665 56.70703125 76.5703125 C56.71669922 77.46621094 56.72636719 78.36210937 56.73632812 79.28515625 C56.76146484 80.22230469 56.78660156 81.15945313 56.8125 82.125 C56.82603516 83.06988281 56.83957031 84.01476562 56.85351562 84.98828125 C56.88893694 87.32608779 56.93832729 89.66276237 57 92 C65.31124051 93.76198299 73.50430168 95.42029353 82 96 C82 96.33 82 96.66 82 97 C74.50280391 98.14364008 67.53181418 97.75667376 60 97 C61.98 97.99 61.98 97.99 64 99 C64 100.32 64 101.64 64 103 C64.66 103 65.32 103 66 103 C66 102.01 66 101.02 66 100 C67.65 100 69.3 100 71 100 C70.11362622 101.11177467 69.2153535 102.21406614 68.3125 103.3125 C67.81363281 103.92738281 67.31476563 104.54226563 66.80078125 105.17578125 C62.82278491 109.20555195 59.31135286 110.47682663 53.6875 110.625 C47.56992952 110.51377145 44.56376303 109.00616254 40.29296875 104.7265625 C39 103 39 103 39 101 C36.66682784 100.22227595 34.38564077 99.57584432 32 99 C32 98.34 32 97.68 32 97 C30.02 97 28.04 97 26 97 C26 96.67 26 96.34 26 96 C34.25 95.01 42.5 94.02 51 93 C51 85.74 51 78.48 51 71 C48.03 70.01 48.03 70.01 45 69 C43.59688415 68.36024711 42.20696328 67.69028304 40.8359375 66.984375 C40.10632813 66.62085938 39.37671875 66.25734375 38.625 65.8828125 C37.1124627 65.12129199 35.60467213 64.3502766 34.1015625 63.5703125 C33.37453125 63.21195312 32.6475 62.85359375 31.8984375 62.484375 C31.24536621 62.15147461 30.59229492 61.81857422 29.91943359 61.47558594 C27.94551095 60.79541565 27.94551095 60.79541565 25.89282227 61.78076172 C23.43326674 63.36505429 21.58575215 65.26408528 19.5625 67.375 C17.20595011 69.79315904 14.96312059 72.02916046 12.3125 74.125 C9.10841599 76.72290595 6.60363148 79.81480135 4 83 C3.67 81.68 3.34 80.36 3 79 C-0.37817425 78.15545644 -2.67465243 77.89155081 -6 79 C-6 78.34 -6 77.68 -6 77 C-6.99 76.67 -7.98 76.34 -9 76 C-8.34 75.01 -7.68 74.02 -7 73 C-6.67 73.66 -6.34 74.32 -6 75 C-3.2019661 73.67004157 -0.69781862 72.18179488 1.828125 70.390625 C2.54613281 69.88273437 3.26414063 69.37484375 4.00390625 68.8515625 C5.11572266 68.05878906 5.11572266 68.05878906 6.25 67.25 C6.97574219 66.73695313 7.70148438 66.22390625 8.44921875 65.6953125 C9.91442918 64.65582274 11.36894533 63.60109813 12.8125 62.53173828 C15 61 15 61 17.3125 59.77685547 C19.76192328 58.36593989 21.30110271 57.27179404 23 55 C23.97605373 50.17302604 23.75550013 45.52372358 23.5 40.625 C23.44585937 38.66240234 23.44585937 38.66240234 23.390625 36.66015625 C23.29652136 33.43710655 23.16516394 30.22006152 23 27 C22.06969971 26.69819824 21.13939941 26.39639648 20.1809082 26.08544922 C17.00115783 25.0003951 14.16988512 23.6660986 11.1875 22.125 C6.75613335 19.86792782 2.30352895 17.74164169 -2.2578125 15.76171875 C-3.52105956 15.20940221 -4.76684253 14.61657874 -6 14 C-5.41892368 10.2397015 -4.34800504 7.46964968 -2.4375 4.1875 C-1.98246094 3.39730469 -1.52742187 2.60710937 -1.05859375 1.79296875 C-0.70925781 1.20128906 -0.35992187 0.60960937 0 0 Z " fill="#8B5AEA" transform="translate(182,250)"/>
<path d="M0 0 C2 2 2 2 2.375 5.4375 C2 9 2 9 0 10.9375 C-0.66 11.288125 -1.32 11.63875 -2 12 C-1.01 13.485 -1.01 13.485 0 15 C-0.99 15.66 -1.98 16.32 -3 17 C-4.77045984 18.18700508 -4.77045984 18.18700508 -6 20 C-6.16670273 23.04173894 -6.16670273 23.04173894 -6 26 C-6.33 26.66 -6.66 27.32 -7 28 C-6.34 28 -5.68 28 -5 28 C-5 27.01 -5 26.02 -5 25 C-4.39671875 24.80664062 -3.7934375 24.61328125 -3.171875 24.4140625 C-2.37265625 24.15367187 -1.5734375 23.89328125 -0.75 23.625 C0.03890625 23.36976563 0.8278125 23.11453125 1.640625 22.8515625 C4.0057443 22.07343262 4.0057443 22.07343262 6.046875 20.8359375 C8.45034648 19.80725171 9.58389983 20.13710708 12 21 C10.99582031 21.556875 9.99164063 22.11375 8.95703125 22.6875 C-0.81910216 28.13324139 -10.38227058 33.82992393 -19.8515625 39.796875 C-20.72554688 40.33828125 -21.59953125 40.8796875 -22.5 41.4375 C-23.2528125 41.91058594 -24.005625 42.38367188 -24.78125 42.87109375 C-27.18747805 44.09538936 -29.34158871 44.59281376 -32 45 C-32 41.7 -32 38.4 -32 35 C-30.68 34.34 -29.36 33.68 -28 33 C-27.31445052 31.67627641 -26.64999839 30.34153804 -26 29 C-24.51365624 27.50536808 -22.96407833 26.07240882 -21.375 24.6875 C-20.4778125 23.89988281 -19.580625 23.11226562 -18.65625 22.30078125 C-17.34140625 21.16189453 -17.34140625 21.16189453 -16 20 C-14.62488771 18.79179446 -13.24987702 17.58347326 -11.875 16.375 C-9.83946253 14.59286618 -7.79447021 12.82660631 -5.7265625 11.08203125 C-4.99179687 10.45683594 -4.25703125 9.83164063 -3.5 9.1875 C-2.8296875 8.62417969 -2.159375 8.06085938 -1.46875 7.48046875 C0.23476384 6.11093455 0.23476384 6.11093455 0 4 C-1.98 4 -3.96 4 -6 4 C-6 3.34 -6 2.68 -6 2 C-4.02 1.34 -2.04 0.68 0 0 Z " fill="#8A59EA" transform="translate(287,213)"/>
<path d="M0 0 C2.75363195 1.19145044 3.66716693 3.06077425 5.19018555 5.59790039 C5.73416992 6.4705957 6.2781543 7.34329102 6.83862305 8.24243164 C7.81518555 10.78540039 7.81518555 10.78540039 7.4206543 12.87524414 C5.0409484 15.70657306 2.05699055 17.04008891 -1.24731445 18.53540039 C-1.92109131 18.84759521 -2.59486816 19.15979004 -3.2890625 19.48144531 C-8.50562426 21.77107876 -12.47496903 22.2692856 -18.18481445 21.78540039 C-18.84481445 22.44540039 -19.50481445 23.10540039 -20.18481445 23.78540039 C-23.19140582 24.85225539 -24.03660505 24.83480353 -27.18481445 23.78540039 C-27.84481445 24.44540039 -28.50481445 25.10540039 -29.18481445 25.78540039 C-28.8136177 19.35132331 -28.8136177 19.35132331 -25.68481445 16.53540039 C-24.85981445 15.95790039 -24.03481445 15.38040039 -23.18481445 14.78540039 C-22.85481445 13.79540039 -22.52481445 12.80540039 -22.18481445 11.78540039 C-19.11061 9.40881152 -15.70933263 7.52045081 -12.37231445 5.53540039 C-10.99849609 4.68461914 -10.99849609 4.68461914 -9.59692383 3.81665039 C-8.71198242 3.28555664 -7.82704102 2.75446289 -6.9152832 2.20727539 C-6.10470459 1.71839844 -5.29412598 1.22952148 -4.45898438 0.72583008 C-2.18481445 -0.21459961 -2.18481445 -0.21459961 0 0 Z " fill="#7D46E9" transform="translate(288.184814453125,250.214599609375)"/>
<path d="M0 0 C1.60568666 0.28317926 3.20952047 0.57687791 4.8125 0.875 C6.15248047 1.11863281 6.15248047 1.11863281 7.51953125 1.3671875 C10 2 10 2 13 4 C13.266487 7.05075084 13.34757146 9.89626179 13.29296875 12.9453125 C13.28872391 13.8303244 13.28447906 14.7153363 13.28010559 15.62716675 C13.26328259 18.46008445 13.22562425 21.29229652 13.1875 24.125 C13.17245782 26.04295849 13.15876861 27.96092811 13.14648438 29.87890625 C13.11336727 34.58621031 13.06156055 39.29298544 13 44 C9.535 44.495 9.535 44.495 6 45 C6 44.01 6 43.02 6 42 C5.83701416 41.39897461 5.67402832 40.79794922 5.50610352 40.17871094 C4.87233544 37.45042039 4.88805495 34.94123077 4.90234375 32.140625 C4.90717773 30.46806641 4.90717773 30.46806641 4.91210938 28.76171875 C4.92048828 27.60285156 4.92886719 26.44398438 4.9375 25.25 C4.94201172 24.07566406 4.94652344 22.90132813 4.95117188 21.69140625 C4.96294906 18.79421928 4.97939674 15.89713546 5 13 C3.68 12.34 2.36 11.68 1 11 C1.020625 9.9275 1.04125 8.855 1.0625 7.75 C1.01336602 4.80196101 0.77716091 2.76595853 0 0 Z " fill="#7F49E7" transform="translate(202,264)"/>
<path d="M0 0 C1.32 0.66 2.64 1.32 4 2 C4 2.66 4 3.32 4 4 C4.53496094 4.2165625 5.06992188 4.433125 5.62109375 4.65625 C8.85538338 6.48317222 11.38672878 8.95883813 14.0625 11.5 C16.93844517 14.21130519 19.69769724 16.79846483 23 19 C23.29296875 21.6015625 23.29296875 21.6015625 23.1875 24.625 C23.16042969 25.62789062 23.13335937 26.63078125 23.10546875 27.6640625 C23.07066406 28.43492187 23.03585938 29.20578125 23 30 C18.96635862 29.42376552 16.40684442 28.20555936 13 26 C11.52663024 25.0971677 10.05115508 24.19776715 8.57421875 23.30078125 C6.94518581 22.30489471 5.31628275 21.30879568 3.6875 20.3125 C2.85154297 19.80138672 2.01558594 19.29027344 1.15429688 18.76367188 C-0.89724808 17.50929867 -2.94867693 16.25473602 -5 15 C-4.36449219 14.72027344 -3.72898438 14.44054687 -3.07421875 14.15234375 C-0.26448721 12.59138178 0.04807098 11.00223769 1 8 C1.33 7.01 1.66 6.02 2 5 C1.12085312 2.3430809 1.12085312 2.3430809 0 0 Z " fill="#834EEB" transform="translate(193,228)"/>
<path d="M0 0 C1.423125 0.2165625 1.423125 0.2165625 2.875 0.4375 C7.56740347 1.11197278 12.28134412 1.55376896 17 2 C17.33 3.65 17.66 5.3 18 7 C18.99 6.67 19.98 6.34 21 6 C21.99 7.485 21.99 7.485 23 9 C21.68 9 20.36 9 19 9 C18.896875 9.78375 18.79375 10.5675 18.6875 11.375 C18 14 18 14 15 16 C14.49297483 18.12106795 14.49297483 18.12106795 14.48828125 20.5703125 C14.45283203 21.46621094 14.41738281 22.36210937 14.38085938 23.28515625 C14.34702148 24.69087891 14.34702148 24.69087891 14.3125 26.125 C14.27833984 27.06988281 14.24417969 28.01476562 14.20898438 28.98828125 C14.12635888 31.32540253 14.05726012 33.66214191 14 36 C12.68 36 11.36 36 10 36 C10 29.07 10 22.14 10 15 C9.01 15 8.02 15 7 15 C7 14.01 7 13.02 7 12 C5.02 11.01 3.04 10.02 1 9 C1.309375 7.824375 1.309375 7.824375 1.625 6.625 C1.74875 5.75875 1.8725 4.8925 2 4 C1.34 3.34 0.68 2.68 0 2 C0 1.34 0 0.68 0 0 Z " fill="#804BE7" transform="translate(224,306)"/>
<path d="M0 0 C2.375 0.9375 2.375 0.9375 4 3 C4.42843384 5.26213069 4.62539047 7.44637559 4.7265625 9.74609375 C5.02668645 12.21997264 5.87127925 13.80125197 7 16 C7 16.99 7 17.98 7 19 C5.68 18.34 4.36 17.68 3 17 C3 16.34 3 15.68 3 15 C0.48916886 16.25541557 0.12874554 17.50063488 -1 20 C-1.33 18.68 -1.66 17.36 -2 16 C-3.093125 16.061875 -4.18625 16.12375 -5.3125 16.1875 C-9 16 -9 16 -10.875 14.8125 C-12.33551279 12.45945162 -12.80213778 10.7700711 -13 8 C-12.23355683 5.07358062 -11.37191157 3.39946058 -9.3125 1.1875 C-6.03424007 -0.49593078 -3.63361098 -0.38931546 0 0 Z " fill="#7F48EC" transform="translate(163,107)"/>
<path d="M0 0 C1.32 0 2.64 0 4 0 C5.48679725 2.97359449 5.11112605 5.66299179 5.09765625 8.9765625 C5.0962413 9.66181 5.09482635 10.3470575 5.09336853 11.05307007 C5.08776675 13.24375761 5.07521406 15.4343433 5.0625 17.625 C5.05748522 19.10937352 5.05292228 20.59374865 5.04882812 22.078125 C5.03779677 25.71878315 5.02053099 29.35938164 5 33 C-0.75 34.125 -0.75 34.125 -3 33 C-2.8453125 31.7625 -2.690625 30.525 -2.53125 29.25 C-1.77564112 22.46016248 -1.6211548 15.64810564 -1.39453125 8.82421875 C-1.35714844 7.83035156 -1.31976563 6.83648437 -1.28125 5.8125 C-1.25095703 4.91144531 -1.22066406 4.01039063 -1.18945312 3.08203125 C-1 1 -1 1 0 0 Z " fill="#7D47E8" transform="translate(260,276)"/>
<path d="M0 0 C0.33 0 0.66 0 1 0 C1 9.57 1 19.14 1 29 C2.32 29.66 3.64 30.32 5 31 C6.16808129 31.76899231 7.31940145 32.56401216 8.453125 33.3828125 C9.38125 34.04990234 9.38125 34.04990234 10.328125 34.73046875 C10.96234375 35.19066406 11.5965625 35.65085937 12.25 36.125 C12.8996875 36.59292969 13.549375 37.06085938 14.21875 37.54296875 C15.81435483 38.69274282 17.40743025 39.84602566 19 41 C17.02 41.495 17.02 41.495 15 42 C15 41.34 15 40.68 15 40 C14.01 40.495 14.01 40.495 13 41 C12.34786708 43.02463255 12.34786708 43.02463255 12 45 C13.32 45 14.64 45 16 45 C16 46.65 16 48.3 16 50 C14.35975327 48.59895591 12.72047347 47.1967649 11.0859375 45.7890625 C9.66098462 44.5669119 8.22829905 43.35373454 6.7890625 42.1484375 C5.71785156 41.23964844 5.71785156 41.23964844 4.625 40.3125 C3.95726562 39.75175781 3.28953125 39.19101562 2.6015625 38.61328125 C1 37 1 37 0 34 C-2.00016466 32.79117904 -2.00016466 32.79117904 -4 32 C-3.01 31.34 -2.02 30.68 -1 30 C-0.48779459 26.89786275 -0.48779459 26.89786275 -0.48828125 23.2421875 C-0.46135445 22.24761032 -0.46135445 22.24761032 -0.43388367 21.23294067 C-0.37967076 19.11369197 -0.34585229 16.99466975 -0.3125 14.875 C-0.27933633 13.43877048 -0.24484755 12.0025709 -0.20898438 10.56640625 C-0.12394036 7.04448871 -0.05718127 3.52249241 0 0 Z " fill="#9B72E7" transform="translate(265,277)"/>
<path d="M0 0 C0.33 0.66 0.66 1.32 1 2 C2.2375 1.814375 3.475 1.62875 4.75 1.4375 C7.76279577 1.05288777 10.10010827 0.9125406 13 2 C14.125 5.75 14.125 5.75 13 8 C11.66666667 8.33333333 10.33333333 8.66666667 9 9 C8.67 9.66 8.34 10.32 8 11 C7.05125 10.95875 6.1025 10.9175 5.125 10.875 C1.89755144 10.65026182 1.89755144 10.65026182 0 13 C-3.00659136 14.066855 -3.85179059 14.04940314 -7 13 C-7.66 13.66 -8.32 14.32 -9 15 C-8.62880325 8.56592292 -8.62880325 8.56592292 -5.5 5.75 C-4.675 5.1725 -3.85 4.595 -3 4 C-2.67 3.01 -2.34 2.02 -2 1 C-1.34 0.67 -0.68 0.34 0 0 Z " fill="#8048EE" transform="translate(268,261)"/>
<path d="M0 0 C0.66 0 1.32 0 2 0 C2 0.66 2 1.32 2 2 C3.03125 2.061875 4.0625 2.12375 5.125 2.1875 C8.7879368 2.95553514 9.65050039 3.25038226 12.25 5.5625 C14.76171244 8.33165376 14.76171244 8.33165376 18 8 C18 10 18 10 16.5625 11.5 C16.046875 11.995 15.53125 12.49 15 13 C14.67 13.66 14.34 14.32 14 15 C13.34 15 12.68 15 12 15 C11.67 15.99 11.34 16.98 11 18 C10.01 18.33 9.02 18.66 8 19 C8.33 16.69 8.66 14.38 9 12 C8.34 13.32 7.68 14.64 7 16 C6.896875 15.360625 6.79375 14.72125 6.6875 14.0625 C6.460625 13.381875 6.23375 12.70125 6 12 C5.01 11.67 4.02 11.34 3 11 C3 9.02 3 7.04 3 5 C1.68 5 0.36 5 -1 5 C-0.67 3.35 -0.34 1.7 0 0 Z " fill="#8F5DED" transform="translate(278,317)"/>
<path d="M0 0 C0.66 0.33 1.32 0.66 2 1 C1.34 2.32 0.68 3.64 0 5 C1.32 4.67 2.64 4.34 4 4 C2.84152424 12.09203964 2.84152424 12.09203964 -0.375 15.5625 C-3 17 -3 17 -7 17 C-7 13.7 -7 10.4 -7 7 C-5.68 6.34 -4.36 5.68 -3 5 C-1.79117904 2.99983534 -1.79117904 2.99983534 -1 1 C-0.67 0.67 -0.34 0.34 0 0 Z " fill="#8B58EC" transform="translate(262,241)"/>
<path d="M0 0 C3 1 3 1 4 3 C4.49512681 7.37362014 4.49223866 9.31955244 1.875 12.9375 C-1.43148796 15.30954571 -3.0239197 15.46233492 -7 15 C-6.01 14.67 -5.02 14.34 -4 14 C-4.33 13.34 -4.66 12.68 -5 12 C-5.99 11.67 -6.98 11.34 -8 11 C-8 10.34 -8 9.68 -8 9 C-7.236875 8.773125 -6.47375 8.54625 -5.6875 8.3125 C-2.4246973 6.71903821 -1.53739291 5.23661664 0 2 C0 1.34 0 0.68 0 0 Z " fill="#9165E7" transform="translate(318,109)"/>
<path d="M0 0 C1 3 1 3 0.25 5 C-0.98548635 6.97677816 -2.28039676 8.43672433 -4 10 C-3.67 10.99 -3.34 11.98 -3 13 C-2.01 13.33 -1.02 13.66 0 14 C-0.99 15.485 -0.99 15.485 -2 17 C-1.34 17.66 -0.68 18.32 0 19 C-0.375 21.125 -0.375 21.125 -1 23 C-7.84804968 15.4688531 -7.84804968 15.4688531 -8.375 10.375 C-6.52698117 5.83895379 -3.67270233 3.15488007 0 0 Z " fill="#9367E5" transform="translate(304,268)"/>
<path d="M0 0 C3.95008059 0.68379546 6.63457018 1.78843183 10 4 C6.42355152 5.2380014 3.66305234 4.74926071 0 4 C-0.66 6.64 -1.32 9.28 -2 12 C-0.68 11.67 0.64 11.34 2 11 C1.67 12.65 1.34 14.3 1 16 C-3.75 15.125 -3.75 15.125 -6 14 C-5.41892368 10.2397015 -4.34800504 7.46964968 -2.4375 4.1875 C-1.98246094 3.39730469 -1.52742187 2.60710937 -1.05859375 1.79296875 C-0.53458984 0.90544922 -0.53458984 0.90544922 0 0 Z " fill="#946BE3" transform="translate(182,250)"/>
<path d="M0 0 C0.66 0.33 1.32 0.66 2 1 C2 2.32 2 3.64 2 5 C1.195625 5.268125 0.39125 5.53625 -0.4375 5.8125 C-1.283125 6.204375 -2.12875 6.59625 -3 7 C-3.33 7.99 -3.66 8.98 -4 10 C-4.66 9.67 -5.32 9.34 -6 9 C-6 9.99 -6 10.98 -6 12 C-6.99 12 -7.98 12 -9 12 C-9.33 12.66 -9.66 13.32 -10 14 C-10.66 14 -11.32 14 -12 14 C-11.63373083 7.65133447 -11.63373083 7.65133447 -8.75 4.6875 C-6.20572963 3.12624318 -3.80004752 2.01112827 -1 1 C-0.67 0.67 -0.34 0.34 0 0 Z " fill="#7D46E9" transform="translate(200,310)"/>
<path d="M0 0 C0.94875 0.04125 1.8975 0.0825 2.875 0.125 C-1.6002918 3.58038625 -6.40847622 6.40553134 -11.25 9.3125 C-12.16910156 9.87130859 -13.08820313 10.43011719 -14.03515625 11.00585938 C-14.91300781 11.53373047 -15.79085938 12.06160156 -16.6953125 12.60546875 C-17.49727051 13.08910889 -18.29922852 13.57274902 -19.12548828 14.07104492 C-21.125 15.125 -21.125 15.125 -23.125 15.125 C-23.455 13.805 -23.785 12.485 -24.125 11.125 C-22.6709375 10.939375 -22.6709375 10.939375 -21.1875 10.75 C-20.176875 10.54375 -19.16625 10.3375 -18.125 10.125 C-17.795 9.465 -17.465 8.805 -17.125 8.125 C-16.135 8.125 -15.145 8.125 -14.125 8.125 C-14.125 7.135 -14.125 6.145 -14.125 5.125 C-13.49851562 4.93164062 -12.87203125 4.73828125 -12.2265625 4.5390625 C-11.40929687 4.27867187 -10.59203125 4.01828125 -9.75 3.75 C-8.53183594 3.36714844 -8.53183594 3.36714844 -7.2890625 2.9765625 C-4.00463792 1.6841355 -3.77852055 0.15114082 0 0 Z " fill="#9268E6" transform="translate(296.125,232.875)"/>
<path d="M0 0 C0.99 0 1.98 0 3 0 C2.649375 1.093125 2.29875 2.18625 1.9375 3.3125 C0.66960546 6.90920373 0.66960546 6.90920373 2 10 C-0.65228812 11.07525194 -3.28368454 12.09456151 -6 13 C-5.67 11.35 -5.34 9.7 -5 8 C-5.99 8.33 -6.98 8.66 -8 9 C-8 7.68 -8 6.36 -8 5 C-3.92857143 2 -3.92857143 2 -1 2 C-0.67 1.34 -0.34 0.68 0 0 Z " fill="#7E46EB" transform="translate(270,238)"/>
<path d="M0 0 C0.66 0 1.32 0 2 0 C2 0.66 2 1.32 2 2 C3.093125 2.12375 4.18625 2.2475 5.3125 2.375 C9 3 9 3 12 5 C11.67 6.32 11.34 7.64 11 9 C8.10765685 9.82638376 6.11257569 10 3 10 C3 8.35 3 6.7 3 5 C1.68 5 0.36 5 -1 5 C-0.67 3.35 -0.34 1.7 0 0 Z " fill="#7E47EA" transform="translate(278,317)"/>
<path d="M0 0 C2.58949269 1.29474635 2.96035764 2.32663393 4 5 C4.54719421 8.65856596 4.04789077 9.92426796 2.03125 13.11328125 C1.19959779 14.18914879 0.35541757 15.25542993 -0.5 16.3125 C-0.92925781 16.86228516 -1.35851562 17.41207031 -1.80078125 17.97851562 C-2.85647765 19.32746102 -3.92682441 20.66491846 -5 22 C-6.0625 20.1875 -6.0625 20.1875 -7 18 C-6.505 16.515 -6.505 16.515 -6 15 C-5.34 15 -4.68 15 -4 15 C-3.71125 14.21625 -3.4225 13.4325 -3.125 12.625 C-2 10 -2 10 0 8 C0.24212873 6.01871492 0.24212873 6.01871492 0.125 3.875 C0.08375 2.59625 0.0425 1.3175 0 0 Z " fill="#895AE0" transform="translate(352,240)"/>
<path d="M0 0 C0.33 0 0.66 0 1 0 C1 9.57 1 19.14 1 29 C2.32 29.66 3.64 30.32 5 31 C6.75 32.625 6.75 32.625 8 34 C7.01 34.495 7.01 34.495 6 35 C6 34.34 6 33.68 6 33 C3.03268602 34.83656989 3.03268602 34.83656989 1 37 C0.505 35.515 0.505 35.515 0 34 C-2.00016466 32.79117904 -2.00016466 32.79117904 -4 32 C-3.01 31.34 -2.02 30.68 -1 30 C-0.48779459 26.89786275 -0.48779459 26.89786275 -0.48828125 23.2421875 C-0.46135445 22.24761032 -0.46135445 22.24761032 -0.43388367 21.23294067 C-0.37967076 19.11369197 -0.34585229 16.99466975 -0.3125 14.875 C-0.27933633 13.43877048 -0.24484755 12.0025709 -0.20898438 10.56640625 C-0.12394036 7.04448871 -0.05718127 3.52249241 0 0 Z " fill="#B796F0" transform="translate(265,277)"/>
<path d="M0 0 C0.66 0.66 1.32 1.32 2 2 C-4.5 4.125 -4.5 4.125 -9 3 C-9 7.29 -9 11.58 -9 16 C-10.96466413 17.06775224 -12.96855359 18.06553465 -15 19 C-15.66 18.67 -16.32 18.34 -17 18 C-16.175 17.505 -15.35 17.01 -14.5 16.5 C-11.85338883 14.35701805 -11.85338883 14.35701805 -11.73828125 12.09375 C-11.7878819 10.6944896 -11.85700403 9.2957891 -11.9453125 7.8984375 C-12.01669721 5.4203683 -11.45624596 3.99275764 -10 2 C-6.32653229 -0.44897847 -4.33643601 -0.31537716 0 0 Z " fill="#A786E4" transform="translate(316,107)"/>
<path d="M0 0 C0.66 0 1.32 0 2 0 C2.66 1.98 3.32 3.96 4 6 C3.34 6 2.68 6 2 6 C2 5.01 2 4.02 2 3 C1.34 4.65 0.68 6.3 0 8 C-1.65 7.67 -3.3 7.34 -5 7 C-5.0825 7.7425 -5.165 8.485 -5.25 9.25 C-6.1594602 12.58468741 -7.23733334 13.94773334 -10 16 C-12.13671875 15.6015625 -12.13671875 15.6015625 -14 15 C-9.78731588 10.20193049 -5.58516999 5.44622545 -1 1 C-0.67 0.67 -0.34 0.34 0 0 Z " fill="#9366EA" transform="translate(274,109)"/>
<path d="M0 0 C0.33 0.99 0.66 1.98 1 3 C0.67 3.66 0.34 4.32 0 5 C-0.99 5 -1.98 5 -3 5 C-3.12375 5.721875 -3.2475 6.44375 -3.375 7.1875 C-3.9904931 9.95721894 -4.88444374 12.3970354 -6 15 C-6.33 14.34 -6.66 13.68 -7 13 C-7.66 13 -8.32 13 -9 13 C-8.67 13.99 -8.34 14.98 -8 16 C-11.63 15.67 -15.26 15.34 -19 15 C-19 14.67 -19 14.34 -19 14 C-17.906875 13.9175 -16.81375 13.835 -15.6875 13.75 C-8.73886832 12.12823677 -4.35209619 5.23211564 0 0 Z " fill="#9A73E7" transform="translate(284,333)"/>
<path d="M0 0 C3 1 3 1 3.8984375 2.734375 C4.04814207 6.07393851 2.58430978 7.60144686 0.625 10.25 C-0.02210938 11.14203125 -0.66921875 12.0340625 -1.3359375 12.953125 C-2.15964844 13.96632813 -2.15964844 13.96632813 -3 15 C-3.33 15 -3.66 15 -4 15 C-4.02712066 13.56260487 -4.04645067 12.12506137 -4.0625 10.6875 C-4.07410156 9.88699219 -4.08570313 9.08648437 -4.09765625 8.26171875 C-3.9700857 5.30718477 -3.46202261 3.49898442 -1.4375 1.3125 C-0.7259375 0.6628125 -0.7259375 0.6628125 0 0 Z " fill="#9065E5" transform="translate(172,275)"/>
<path d="M0 0 C1.98 0 3.96 0 6 0 C6 0.66 6 1.32 6 2 C6.99 2.33 7.98 2.66 9 3 C9 5.64 9 8.28 9 11 C8.01 10.67 7.02 10.34 6 10 C6 9.01 6 8.02 6 7 C3.69 6.67 1.38 6.34 -1 6 C-0.67 4.02 -0.34 2.04 0 0 Z " fill="#8046EC" transform="translate(206,246)"/>
<path d="M0 0 C-0.33 1.32 -0.66 2.64 -1 4 C-1.99 4 -2.98 4 -4 4 C-4 5.32 -4 6.64 -4 8 C-5.0828125 8.12375 -5.0828125 8.12375 -6.1875 8.25 C-9.55313254 9.14750201 -11.41612816 10.7114278 -14 13 C-14 8.62944819 -11.96110763 6.11579236 -9 3 C-6.18372741 1.26551452 -3.36615114 0 0 0 Z " fill="#8D5FE4" transform="translate(162,181)"/>
<path d="M0 0 C2 2 2 2 2.375 5.4375 C2 9 2 9 0 10.9375 C-0.66 11.288125 -1.32 11.63875 -2 12 C-1.01 13.485 -1.01 13.485 0 15 C-3 17 -3 17 -5 18 C-5.875 15.9375 -5.875 15.9375 -6 13 C-4.6012738 10.99444182 -3.05221444 9.30193329 -1.34765625 7.55078125 C0.21864777 6.09081854 0.21864777 6.09081854 0 4 C-1.98 4 -3.96 4 -6 4 C-6 3.34 -6 2.68 -6 2 C-4.02 1.34 -2.04 0.68 0 0 Z " fill="#8253E3" transform="translate(287,213)"/>
<path d="M0 0 C0.33 0 0.66 0 1 0 C1.25 5.625 1.25 5.625 -1 9 C-1.66 9 -2.32 9 -3 9 C-3.33 11.31 -3.66 13.62 -4 16 C-5.32 16.33 -6.64 16.66 -8 17 C-8.33 18.32 -8.66 19.64 -9 21 C-9.66 20.67 -10.32 20.34 -11 20 C-9.35800988 15.37909884 -6.9659032 11.36156215 -4.4375 7.1875 C-4.02564453 6.49462891 -3.61378906 5.80175781 -3.18945312 5.08789062 C-2.15713173 3.37298683 -1.08229765 1.68380945 0 0 Z " fill="#9972E6" transform="translate(146,194)"/>
<path d="M0 0 C0.99 0 1.98 0 3 0 C3 0.99 3 1.98 3 3 C3.66 3 4.32 3 5 3 C5 2.01 5 1.02 5 0 C6.65 0 8.3 0 10 0 C9.11362622 1.11177467 8.2153535 2.21406614 7.3125 3.3125 C6.56419922 4.23482422 6.56419922 4.23482422 5.80078125 5.17578125 C2.642243 8.37542846 0.19830526 9.89463904 -4.33203125 10.29296875 C-5.48058594 10.25816406 -6.62914062 10.22335937 -7.8125 10.1875 C-9.55466797 10.14689453 -9.55466797 10.14689453 -11.33203125 10.10546875 C-12.21246094 10.07066406 -13.09289062 10.03585937 -14 10 C-14 9.67 -14 9.34 -14 9 C-13.25234375 8.93941406 -12.5046875 8.87882812 -11.734375 8.81640625 C-10.74953125 8.73261719 -9.7646875 8.64882813 -8.75 8.5625 C-7.77546875 8.48128906 -6.8009375 8.40007812 -5.796875 8.31640625 C-3.43538247 8.04925416 -1.28098935 7.64628032 1 7 C0.34 5.02 -0.32 3.04 -1 1 C-0.67 0.67 -0.34 0.34 0 0 Z " fill="#936DE3" transform="translate(243,350)"/>
<path d="M0 0 C1.423125 0.2165625 1.423125 0.2165625 2.875 0.4375 C7.56740347 1.11197278 12.28134412 1.55376896 17 2 C17.33 3.65 17.66 5.3 18 7 C18.99 6.67 19.98 6.34 21 6 C21.99 7.485 21.99 7.485 23 9 C20.03 8.505 20.03 8.505 17 8 C16.67 6.68 16.34 5.36 16 4 C14.95199219 4.01740234 14.95199219 4.01740234 13.8828125 4.03515625 C12.97273437 4.04417969 12.06265625 4.05320312 11.125 4.0625 C10.22007812 4.07410156 9.31515625 4.08570313 8.3828125 4.09765625 C6 4 6 4 4 3 C4 3.66 4 4.32 4 5 C2.68 4.34 1.36 3.68 0 3 C0 2.01 0 1.02 0 0 Z " fill="#8145F3" transform="translate(224,306)"/>
<path d="M0 0 C1.32 0 2.64 0 4 0 C4 0.66 4 1.32 4 2 C1.56568361 3.17374173 -0.87204182 4.33915763 -3.3125 5.5 C-4.00279297 5.83386719 -4.69308594 6.16773438 -5.40429688 6.51171875 C-10.66015625 9 -10.66015625 9 -14 9 C-14 8.34 -14 7.68 -14 7 C-13.01 6.67 -12.02 6.34 -11 6 C-9.78130071 3.49552484 -9.78130071 3.49552484 -9 1 C-7.700625 1.020625 -6.40125 1.04125 -5.0625 1.0625 C-3.70834367 1.08399454 -2.35243917 1.07148199 -1 1 C-0.67 0.67 -0.34 0.34 0 0 Z " fill="#956AE4" transform="translate(252,395)"/>
<path d="M0 0 C0.99 0.99 1.98 1.98 3 3 C1.95907983 6.45952879 0.81707239 7.10321145 -2.40625 8.921875 C-3.76494091 9.54427727 -5.12983763 10.15327508 -6.5 10.75 C-7.53447266 11.22373047 -7.53447266 11.22373047 -8.58984375 11.70703125 C-13.6820211 14 -13.6820211 14 -16 14 C-16.33 13.01 -16.66 12.02 -17 11 C-13.86501708 9.14223235 -11.62528568 8.79859524 -8 9 C-8 8.34 -8 7.68 -8 7 C-5.69 6.34 -3.38 5.68 -1 5 C-0.67 3.35 -0.34 1.7 0 0 Z " fill="#A585E1" transform="translate(293,258)"/>
<path d="M0 0 C1.98 0.66 3.96 1.32 6 2 C4.59155282 5.21524305 2.89655214 7.32183868 0.375 9.75 C-0.57246094 10.67039062 -0.57246094 10.67039062 -1.5390625 11.609375 C-2.02117187 12.06828125 -2.50328125 12.5271875 -3 13 C-4.125 9.25 -4.125 9.25 -3 7 C-1.68 7 -0.36 7 1 7 C0.34 5.68 -0.32 4.36 -1 3 C-2.98 3.99 -2.98 3.99 -5 5 C-3.35 3.35 -1.7 1.7 0 0 Z " fill="#9C75E4" transform="translate(201,308)"/>
<path d="M0 0 C3.51581857 2.85723584 6.78074949 5.55602497 9.4375 9.25 C12.83384516 12.89485822 15.16278154 13.18013247 20 14 C20 14.33 20 14.66 20 15 C18.72125 14.95875 17.4425 14.9175 16.125 14.875 C13.98128508 14.75787127 13.98128508 14.75787127 12 15 C11.34 15.66 10.68 16.32 10 17 C9.74605469 16.36191406 9.49210938 15.72382813 9.23046875 15.06640625 C8.88628906 14.24011719 8.54210937 13.41382813 8.1875 12.5625 C7.85105469 11.73878906 7.51460937 10.91507812 7.16796875 10.06640625 C6.11596912 7.66627512 6.11596912 7.66627512 3 7 C1.3125 5.6875 1.3125 5.6875 0 4 C0 2.68 0 1.36 0 0 Z " fill="#A680EA" transform="translate(186,333)"/>
<path d="M0 0 C3.85205198 1.47703954 5.25475324 3.48702291 7.3125 7 C7.84488281 7.886875 8.37726563 8.77375 8.92578125 9.6875 C9.45751953 10.8321875 9.45751953 10.8321875 10 12 C9.67 12.66 9.34 13.32 9 14 C5.64379729 12.61122646 3.92701272 11.08322035 2 8 C2 7.34 2 6.68 2 6 C1.01 5.67 0.02 5.34 -1 5 C-0.67 3.35 -0.34 1.7 0 0 Z " fill="#936AE5" transform="translate(347,277)"/>
<path d="M0 0 C1.0725 0.309375 2.145 0.61875 3.25 0.9375 C5.82866222 1.66812096 8.39512102 2.37482904 11 3 C11 3.66 11 4.32 11 5 C12.98 5 14.96 5 17 5 C17 5.66 17 6.32 17 7 C18.32 7 19.64 7 21 7 C21 7.66 21 8.32 21 9 C21.99 9.33 22.98 9.66 24 10 C15.41573896 9.41470947 7.14648583 5.68579108 0 1 C0 0.67 0 0.34 0 0 Z " fill="#9E7AE4" transform="translate(179,180)"/>
<path d="M0 0 C7.61889369 0.17496416 12.59195652 1.99808958 19 6 C20.32591181 6.68130763 21.65717127 7.35267225 23 8 C19.53690981 9.21760043 17.77694761 8.80744321 14.453125 7.34765625 C13.60878906 6.98349609 12.76445312 6.61933594 11.89453125 6.24414062 C11.02183594 5.85419922 10.14914063 5.46425781 9.25 5.0625 C7.91775391 4.48338867 7.91775391 4.48338867 6.55859375 3.89257812 C4.36772604 2.93849057 2.18204402 1.97405887 0 1 C0 0.67 0 0.34 0 0 Z " fill="#9F7CE3" transform="translate(206,224)"/>
<path d="M0 0 C1.875 0.25 1.875 0.25 4 1 C4.309375 1.639375 4.61875 2.27875 4.9375 2.9375 C5.87279303 5.26452391 5.87279303 5.26452391 8.625 6.25 C9.40875 6.4975 10.1925 6.745 11 7 C11 7.66 11 8.32 11 9 C11.66 9 12.32 9 13 9 C13.33 10.65 13.66 12.3 14 14 C11 14 11 14 8.80859375 11.953125 C7.63490234 10.61507813 7.63490234 10.61507813 6.4375 9.25 C5.65246094 8.36828125 4.86742187 7.4865625 4.05859375 6.578125 C2.32793912 4.41070175 1.09301712 2.52870987 0 0 Z " fill="#9D77E5" transform="translate(144,342)"/>
<path d="M0 0 C0 3.76687864 -0.23537317 4.91190305 -2 8 C-2 7.34 -2 6.68 -2 6 C-4.33317216 5.22227595 -6.61435923 4.57584432 -9 4 C-9 3.34 -9 2.68 -9 2 C-10.98 2 -12.96 2 -15 2 C-15 1.67 -15 1.34 -15 1 C-9.9752761 0.37470103 -5.07471573 -0.13012092 0 0 Z " fill="#9164EA" transform="translate(223,345)"/>
<path d="M0 0 C1.32 1.65 2.64 3.3 4 5 C3.04882866 6.1725131 2.08882991 7.33787015 1.125 8.5 C0.59132812 9.1496875 0.05765625 9.799375 -0.4921875 10.46875 C-1.23855469 11.22671875 -1.23855469 11.22671875 -2 12 C-2.66 12 -3.32 12 -4 12 C-4.66 13.65 -5.32 15.3 -6 17 C-6.66 17 -7.32 17 -8 17 C-6.59116673 12.90157595 -4.50961643 9.54408397 -2.12109375 5.96484375 C-0.98339089 3.97089065 -0.44433547 2.2416475 0 0 Z " fill="#8F63E3" transform="translate(128,265)"/>
<path d="M0 0 C2.64 0 5.28 0 8 0 C8.33 1.65 8.66 3.3 9 5 C10.11375 4.95875 11.2275 4.9175 12.375 4.875 C16 5 16 5 18 7 C17.34 7 16.68 7 16 7 C16.33 7.99 16.66 8.98 17 10 C16.42121094 9.70867187 15.84242188 9.41734375 15.24609375 9.1171875 C13.84871788 8.42214489 12.44589345 7.73781837 11.03515625 7.0703125 C6.92912376 5.10266921 3.45494024 3.02307271 0 0 Z " fill="#A27DE8" transform="translate(196,247)"/>
<path d="M0 0 C0.66 0 1.32 0 2 0 C2 0.99 2 1.98 2 3 C1.34 3 0.68 3 0 3 C0 4.32 0 5.64 0 7 C1.98 7 3.96 7 6 7 C6 7.66 6 8.32 6 9 C3.04518508 11.74375671 2.22528092 12 -2 12 C-2.05395478 10.37536158 -2.09277195 8.75021459 -2.125 7.125 C-2.14820313 6.22007812 -2.17140625 5.31515625 -2.1953125 4.3828125 C-2 2 -2 2 0 0 Z " fill="#A486E2" transform="translate(257,246)"/>
<path d="M0 0 C1.9609375 0.7265625 1.9609375 0.7265625 4 2 C4.5390625 4.0234375 4.5390625 4.0234375 4.625 6.375 C4.77540614 9.83434126 5.42407444 11.93640072 7 15 C7 15.99 7 16.98 7 18 C3.125 16.25 3.125 16.25 2 14 C1.79620266 12.19129862 1.63499005 10.37763408 1.5 8.5625 C1.26693358 5.43691282 0.99525057 2.98575171 0 0 Z " fill="#A483E4" transform="translate(163,108)"/>
<path d="M0 0 C1.39195915 4.17587745 -0.17676781 6.13474776 -2 10 C-2.66 10 -3.32 10 -4 10 C-4.54372951 13.05847848 -5 15.88772805 -5 19 C-6.5625 17.8125 -6.5625 17.8125 -8 16 C-7.63828346 11.65940146 -5.81143214 8.76997942 -3.4375 5.1875 C-2.79683594 4.21167969 -2.15617187 3.23585937 -1.49609375 2.23046875 C-0.75552734 1.12638672 -0.75552734 1.12638672 0 0 Z " fill="#916CE0" transform="translate(123,233)"/>
<path d="M0 0 C0.99 0.33 1.98 0.66 3 1 C2.67 2.32 2.34 3.64 2 5 C2.66 5.33 3.32 5.66 4 6 C3.67 6.99 3.34 7.98 3 9 C1.35 9 -0.3 9 -2 9 C-2.66 7.35 -3.32 5.7 -4 4 C-2.68 2.68 -1.36 1.36 0 0 Z " fill="#7D49E3" transform="translate(194,262)"/>
<path d="M0 0 C1.1157177 3.34715311 1.1807689 4.71071522 0 8 C-2.5 9.125 -2.5 9.125 -5 10 C-5.33 10.99 -5.66 11.98 -6 13 C-6.66 13 -7.32 13 -8 13 C-4 2 -4 2 0 0 Z " fill="#8F62E2" transform="translate(132,220)"/>
<path d="M0 0 C0 3.9442667 -1.31374137 4.82396027 -3.9375 7.6875 C-4.66839844 8.49574219 -5.39929688 9.30398438 -6.15234375 10.13671875 C-6.76207031 10.75160156 -7.37179687 11.36648438 -8 12 C-8.33 12 -8.66 12 -9 12 C-9 9.69 -9 7.38 -9 5 C-8.34 5 -7.68 5 -7 5 C-7 4.34 -7 3.68 -7 3 C-4.69 2.01 -2.38 1.02 0 0 Z " fill="#9B75E9" transform="translate(337,330)"/>
<path d="M0 0 C0.99 0 1.98 0 3 0 C3 0.66 3 1.32 3 2 C3.639375 2.268125 4.27875 2.53625 4.9375 2.8125 C7 4 7 4 8 7 C8.7425 6.649375 9.485 6.29875 10.25 5.9375 C13.1322726 4.95490707 14.21176345 4.9673198 17 6 C13.27034861 8.03435531 11.33094958 9 7 9 C7 8.34 7 7.68 7 7 C6.34 7 5.68 7 5 7 C3.7109375 5.46875 3.7109375 5.46875 2.375 3.5 C1.70597656 2.52546875 1.70597656 2.52546875 1.0234375 1.53125 C0.68570313 1.0259375 0.34796875 0.520625 0 0 Z " fill="#A383E3" transform="translate(164,365)"/>
<path d="M0 0 C0.96679688 0.10828125 1.93359375 0.2165625 2.9296875 0.328125 C3.92226562 0.44671875 4.91484375 0.5653125 5.9375 0.6875 C7.83297826 0.87855616 9.72879258 1.06632179 11.625 1.25 C13.06255197 1.39532018 14.50007278 1.54095102 15.9375 1.6875 C15.9375 2.0175 15.9375 2.3475 15.9375 2.6875 C7.69662154 4.13326815 0.10261208 2.98918453 -8.0625 1.6875 C-4.62649692 -0.60316872 -3.93337532 -0.46974123 0 0 Z " fill="#9F79E5" transform="translate(248.0625,344.3125)"/>
<path d="M0 0 C3.95820859 0.56545837 6.6659053 1.80902348 10 4 C6.42355152 5.2380014 3.66305234 4.74926071 0 4 C-0.33 4.99 -0.66 5.98 -1 7 C-1.66 7 -2.32 7 -3 7 C-1.125 2.25 -1.125 2.25 0 0 Z " fill="#9D7AE2" transform="translate(182,250)"/>
<path d="M0 0 C2.31 0 4.62 0 7 0 C7.33 0.66 7.66 1.32 8 2 C8.99 2.33 9.98 2.66 11 3 C11 3.66 11 4.32 11 5 C12.65 5.33 14.3 5.66 16 6 C14.390625 7.20703125 14.390625 7.20703125 12 8 C8.984375 6.69921875 8.984375 6.69921875 5.75 4.6875 C4.67234375 4.03136719 3.5946875 3.37523437 2.484375 2.69921875 C1.66453125 2.13847656 0.8446875 1.57773438 0 1 C0 0.67 0 0.34 0 0 Z " fill="#9D78E3" transform="translate(174,234)"/>
<path d="M0 0 C4.8333472 -0.08333357 9.23692563 0.04738513 14 1 C14 1.33 14 1.66 14 2 C10.37 2 6.74 2 3 2 C3 2.66 3 3.32 3 4 C-3.625 4.25 -3.625 4.25 -7 2 C-4.69 2 -2.38 2 0 2 C0 1.34 0 0.68 0 0 Z " fill="#7B4ED8" transform="translate(257,347)"/>
<path d="M0 0 C1.32 0.66 2.64 1.32 4 2 C3.01 2.8971875 3.01 2.8971875 2 3.8125 C-0.3373846 5.87501834 -0.3373846 5.87501834 0 9 C-2.31 10.32 -4.62 11.64 -7 13 C-5.35821735 8.22390502 -2.73453298 4.20617096 0 0 Z " fill="#946EE3" transform="translate(119,282)"/>
<path d="M0 0 C2.89251394 1.11250536 3.83998866 2.33103412 5.4375 4.9375 C4.4475 6.4225 4.4475 6.4225 3.4375 7.9375 C2.4475 7.6075 1.4575 7.2775 0.4375 6.9375 C0.4375 5.9475 0.4375 4.9575 0.4375 3.9375 C-1.8725 3.6075 -4.1825 3.2775 -6.5625 2.9375 C-4.26471314 0.80991958 -3.19086483 -0.07782597 0 0 Z " fill="#9C73E8" transform="translate(168.5625,178.0625)"/>
<path d="M0 0 C-2.33214148 1.20628008 -4.49642139 2.1654738 -7 3 C-9.18975773 6.28463659 -9.99806563 9.20696275 -11 13 C-12.125 11.375 -12.125 11.375 -13 9 C-12.32772865 5.70587039 -11.56864994 3.63183326 -9.3125 1.125 C-6.14155133 -0.41762368 -3.47470131 -0.20046354 0 0 Z " fill="#9D7CDE" transform="translate(163,107)"/>
<path d="M0 0 C1.32 0.33 2.64 0.66 4 1 C4 5.95 4 10.9 4 16 C1.37722658 10.75445315 -0.35861008 5.91706636 0 0 Z " fill="#A282E3" transform="translate(165,143)"/>
<path d="M0 0 C1.06528748 2.73019786 1.07998186 3.79298812 0.00390625 6.578125 C-0.47175781 7.45984375 -0.94742188 8.3415625 -1.4375 9.25 C-1.91058594 10.14203125 -2.38367188 11.0340625 -2.87109375 11.953125 C-3.24363281 12.62859375 -3.61617187 13.3040625 -4 14 C-4.66 14 -5.32 14 -6 14 C-5.57202798 8.29370646 -3.15654048 4.58921384 0 0 Z " fill="#9A75E6" transform="translate(229,113)"/>
<path d="M0 0 C1.65 0 3.3 0 5 0 C5 0.66 5 1.32 5 2 C6.0828125 2.185625 6.0828125 2.185625 7.1875 2.375 C9.95721894 2.9904931 12.3970354 3.88444374 15 5 C13.359375 6.1484375 13.359375 6.1484375 11 7 C8.203125 6.1015625 8.203125 6.1015625 5.25 4.625 C4.26515625 4.14289063 3.2803125 3.66078125 2.265625 3.1640625 C1.51796875 2.77992188 0.7703125 2.39578125 0 2 C0 1.34 0 0.68 0 0 Z " fill="#9D77E4" transform="translate(218,313)"/>
<path d="M0 0 C0.66 0 1.32 0 2 0 C2 0.99 2 1.98 2 3 C2.66 3 3.32 3 4 3 C5 6 5 6 4 9 C2.02 9 0.04 9 -2 9 C-1.67 8.01 -1.34 7.02 -1 6 C-0.34 6 0.32 6 1 6 C1 5.34 1 4.68 1 4 C0.34 4 -0.32 4 -1 4 C-0.67 2.68 -0.34 1.36 0 0 Z " fill="#7E45F1" transform="translate(287,254)"/>
<path d="M0 0 C3.67882073 3.28466137 5.75150101 6.66360908 8 11 C8 11.66 8 12.32 8 13 C6.68 13.33 5.36 13.66 4 14 C0.74031891 4.58997722 0.74031891 4.58997722 0 0 Z " fill="#9F78E6" transform="translate(324,194)"/>
<path d="M0 0 C2.31 1.98 4.62 3.96 7 6 C6.34 6.66 5.68 7.32 5 8 C5 7.34 5 6.68 5 6 C3.68 6 2.36 6 1 6 C0.67 6.66 0.34 7.32 0 8 C-0.66 7.34 -1.32 6.68 -2 6 C-1.44444444 1.44444444 -1.44444444 1.44444444 0 0 Z " fill="#9E7AE4" transform="translate(196,109)"/>
<path d="M0 0 C0.66 0.99 1.32 1.98 2 3 C0.625 5 0.625 5 -1 7 C-1.66 7 -2.32 7 -3 7 C-3 8.65 -3 10.3 -3 12 C-4.65 12.66 -6.3 13.32 -8 14 C-5.66840232 9.14250484 -2.98828911 4.48243367 0 0 Z " fill="#9F7BE5" transform="translate(308,305)"/>
<path d="M0 0 C0 0.66 0 1.32 0 2 C-0.66 2 -1.32 2 -2 2 C-2 2.66 -2 3.32 -2 4 C-3.32 4 -4.64 4 -6 4 C-6 5.32 -6 6.64 -6 8 C-8.64 8 -11.28 8 -14 8 C-4.57142857 0 -4.57142857 0 0 0 Z " fill="#9E7CE5" transform="translate(283,253)"/>
<path d="M0 0 C1.98 0.99 1.98 0.99 4 2 C4 2.66 4 3.32 4 4 C5.32 4.66 6.64 5.32 8 6 C7.01 6.66 6.02 7.32 5 8 C5 8.66 5 9.32 5 10 C3.35 10 1.7 10 0 10 C0.37125 9.278125 0.7425 8.55625 1.125 7.8125 C2.18974141 4.39011689 1.60339848 3.11771927 0 0 Z " fill="#9B72E9" transform="translate(193,228)"/>
<path d="M0 0 C2.72426311 2.35277269 3.8141763 4.62496331 5 8 C5.99 7.67 6.98 7.34 8 7 C8 7.99 8 8.98 8 10 C6.35 10.33 4.7 10.66 3 11 C3 9.68 3 8.36 3 7 C2.01 7 1.02 7 0 7 C0 4.69 0 2.38 0 0 Z " fill="#9E78E7" transform="translate(247,123)"/>
<path d="M0 0 C1.1055189 0.93590504 2.20935453 1.87379858 3.3125 2.8125 C3.92738281 3.33457031 4.54226562 3.85664062 5.17578125 4.39453125 C6.85424679 5.87172469 8.43882034 7.40039131 10 9 C9.67 9.66 9.34 10.32 9 11 C7.02 10.34 5.04 9.68 3 9 C3.33 7.68 3.66 6.36 4 5 C2.68 5.33 1.36 5.66 0 6 C0 4.02 0 2.04 0 0 Z " fill="#A887E6" transform="translate(203,116)"/>
<path d="M0 0 C0.57452195 2.21601325 1.05066686 4.35466805 1.375 6.625 C1.81236489 9.3540951 1.81236489 9.3540951 5 11 C4.01 11.495 4.01 11.495 3 12 C2.67 12.66 2.34 13.32 2 14 C-0.03472487 11.81946423 -1.76690524 9.72967131 -3 7 C-2.52882681 4.16200336 -1.4950128 2.52605611 0 0 Z " fill="#A280E1" transform="translate(111,295)"/>
<path d="M0 0 C0.99 0 1.98 0 3 0 C2.3125 1.9375 2.3125 1.9375 1 4 C-2.13007923 5.1843543 -3.62394724 5.12535092 -6.8125 4.0625 C-7.534375 3.711875 -8.25625 3.36125 -9 3 C-7 1 -7 1 -4.375 0.875 C-3.59125 0.91625 -2.8075 0.9575 -2 1 C-2 1.66 -2 2.32 -2 3 C-1.34 3 -0.68 3 0 3 C0 2.01 0 1.02 0 0 Z " fill="#A07CE6" transform="translate(300,369)"/>
<path d="M0 0 C1 3 1 3 0.25 5.0625 C-1 7 -1 7 -4 9 C-4.99 9 -5.98 9 -7 9 C-5.44499019 5.18315774 -2.96404505 2.80804268 0 0 Z " fill="#A17DE6" transform="translate(304,268)"/>
<path d="M0 0 C-0.99 0.680625 -0.99 0.680625 -2 1.375 C-2.99 2.179375 -2.99 2.179375 -4 3 C-4 3.66 -4 4.32 -4 5 C-8.455 4.01 -8.455 4.01 -13 3 C-4.2 -1.4 -4.2 -1.4 0 0 Z " fill="#9971E5" transform="translate(256,369)"/>
<path d="M0 0 C1.98 0.66 3.96 1.32 6 2 C6 2.66 6 3.32 6 4 C6.99 4.33 7.98 4.66 9 5 C9.33 6.98 9.66 8.96 10 11 C5.67760044 7.65996398 2.82522609 4.67248931 0 0 Z " fill="#A585E6" transform="translate(131,328)"/>
<path d="M0 0 C0.99 0 1.98 0 3 0 C3 1.32 3 2.64 3 4 C4.32 4.66 5.64 5.32 7 6 C7 8.64 7 11.28 7 14 C6.34 14 5.68 14 5 14 C4.9175 12.948125 4.835 11.89625 4.75 10.8125 C3.94044779 6.69727629 2.72699756 5.07886822 0 2 C0 1.34 0 0.68 0 0 Z " fill="#A07DE6" transform="translate(304,291)"/>
<path d="M0 0 C4.83540096 2.61111652 8.87103901 5.37457083 13 9 C11.68 9.33 10.36 9.66 9 10 C8.608125 9.38125 8.21625 8.7625 7.8125 8.125 C6.13118421 5.80951476 6.13118421 5.80951476 3.375 5 C2.59125 4.67 1.8075 4.34 1 4 C0.1875 1.875 0.1875 1.875 0 0 Z " fill="#A88AE8" transform="translate(171,125)"/>
<path d="M0 0 C-2.10714286 5.99725275 -2.10714286 5.99725275 -5 8 C-7.1015625 7.5703125 -7.1015625 7.5703125 -9 7 C-8.07347299 5.82460004 -7.13336613 4.65989423 -6.1875 3.5 C-5.66542969 2.8503125 -5.14335937 2.200625 -4.60546875 1.53125 C-3 0 -3 0 0 0 Z " fill="#926CE4" transform="translate(269,117)"/>
<path d="M0 0 C1.0625 1.875 1.0625 1.875 2 4 C1.67 4.66 1.34 5.32 1 6 C2.32 6.66 3.64 7.32 5 8 C2.21176345 9.0326802 1.1322726 9.04509293 -1.75 8.0625 C-2.4925 7.711875 -3.235 7.36125 -4 7 C-3.34 5.68 -2.68 4.36 -2 3 C-1.34 3 -0.68 3 0 3 C0 2.01 0 1.02 0 0 Z " fill="#9063E9" transform="translate(207,302)"/>
<path d="M0 0 C1.14453125 1.734375 1.14453125 1.734375 2 4 C1.13671875 6.140625 1.13671875 6.140625 -0.3125 8.25 C-0.78300781 8.95640625 -1.25351563 9.6628125 -1.73828125 10.390625 C-2.15464844 10.92171875 -2.57101563 11.4528125 -3 12 C-3.33 12 -3.66 12 -4 12 C-4.33 9.69 -4.66 7.38 -5 5 C-4.01 5.495 -4.01 5.495 -3 6 C-2.67 5.01 -2.34 4.02 -2 3 C-1.34 3 -0.68 3 0 3 C0 2.01 0 1.02 0 0 Z " fill="#9E79E6" transform="translate(167,237)"/>
<path d="M0 0 C0.66 0.33 1.32 0.66 2 1 C0.8125 3.4375 0.8125 3.4375 -1 6 C-3.5625 6.875 -3.5625 6.875 -6 7 C-6.66 6.67 -7.32 6.34 -8 6 C-7.67 4.68 -7.34 3.36 -7 2 C-7 2.99 -7 3.98 -7 5 C-3.32159111 2.72692336 -3.32159111 2.72692336 0 0 Z " fill="#AB89E6" transform="translate(292,130)"/>
<path d="M0 0 C3.375 -0.125 3.375 -0.125 7 0 C7.66 0.66 8.32 1.32 9 2 C2.375 4.125 2.375 4.125 -1 3 C-0.67 2.01 -0.34 1.02 0 0 Z " fill="#956EE0" transform="translate(309,107)"/>
<path d="M0 0 C-0.33 1.32 -0.66 2.64 -1 4 C-3.31 4 -5.62 4 -8 4 C-8.33 4.99 -8.66 5.98 -9 7 C-9.66 7 -10.32 7 -11 7 C-10.4375 5.1875 -10.4375 5.1875 -9 3 C-3 0 -3 0 0 0 Z " fill="#9A77E1" transform="translate(162,181)"/>
<path d="M0 0 C3.3 0.33 6.6 0.66 10 1 C10 1.66 10 2.32 10 3 C10.99 3.33 11.98 3.66 13 4 C10.44855176 4.93045933 9.25993522 5.08564091 6.640625 4.22265625 C5.85171875 3.83980469 5.0628125 3.45695312 4.25 3.0625 C3.45078125 2.68222656 2.6515625 2.30195313 1.828125 1.91015625 C1.22484375 1.60980469 0.6215625 1.30945313 0 1 C0 0.67 0 0.34 0 0 Z " fill="#A786E8" transform="translate(211,394)"/>
<path d="M0 0 C2.97 0.495 2.97 0.495 6 1 C6 1.66 6 2.32 6 3 C3.1875 4.5625 3.1875 4.5625 0 6 C-0.99 5.67 -1.98 5.34 -3 5 C-2 3 -2 3 0 0 Z " fill="#946CE4" transform="translate(270,270)"/>
<path d="M0 0 C1.17539996 0.92652701 2.34010577 1.86663387 3.5 2.8125 C4.1496875 3.33457031 4.799375 3.85664063 5.46875 4.39453125 C7 6 7 6 7 9 C6.67 8.34 6.34 7.68 6 7 C4.02 7 2.04 7 0 7 C0 4.69 0 2.38 0 0 Z " fill="#9C75E5" transform="translate(182,217)"/>
<path d="M0 0 C1.79398267 0.95399078 3.58511655 1.91334026 5.375 2.875 C6.37273437 3.40867188 7.37046875 3.94234375 8.3984375 4.4921875 C11 6 11 6 13 8 C12.01 8.33 11.02 8.66 10 9 C9.34 8.67 8.68 8.34 8 8 C8 7.34 8 6.68 8 6 C6.35 5.67 4.7 5.34 3 5 C2.67 4.01 2.34 3.02 2 2 C1.34 2 0.68 2 0 2 C0 1.34 0 0.68 0 0 Z " fill="#B392EA" transform="translate(174,183)"/>
<path d="M0 0 C0.33 1.32 0.66 2.64 1 4 C1.66 4 2.32 4 3 4 C3.12375 4.804375 3.2475 5.60875 3.375 6.4375 C3.684375 7.7059375 3.684375 7.7059375 4 9 C4.66 9.33 5.32 9.66 6 10 C5.67 10.66 5.34 11.32 5 12 C1.94389514 9.33570345 0.19348639 7.71866373 -0.875 3.75 C-0.91625 2.8425 -0.9575 1.935 -1 1 C-0.67 0.67 -0.34 0.34 0 0 Z " fill="#A584E6" transform="translate(172,167)"/>
<path d="M0 0 C0.66 0 1.32 0 2 0 C2.75 1.625 2.75 1.625 3 4 C-0.17808219 9.5890411 -0.17808219 9.5890411 -3 11 C-2.11223998 7.30099992 -1.05418136 3.65449539 0 0 Z " fill="#9A77E2" transform="translate(297,168)"/>
<path d="M0 0 C2.64 0 5.28 0 8 0 C8.33 1.32 8.66 2.64 9 4 C3.375 4.25 3.375 4.25 0 2 C0 1.34 0 0.68 0 0 Z " fill="#895BE2" transform="translate(181,134)"/>
<path d="M0 0 C0.99 0.33 1.98 0.66 3 1 C3 1.66 3 2.32 3 3 C1.36739286 4.37482707 -0.30225062 5.70647667 -2 7 C-2.66 7.66 -3.32 8.32 -4 9 C-4 7.02 -4 5.04 -4 3 C-3.34 2.67 -2.68 2.34 -2 2 C-1.34 2.33 -0.68 2.66 0 3 C0 2.01 0 1.02 0 0 Z " fill="#956CE0" transform="translate(194,319)"/>
<path d="M0 0 C2.82357888 1.41178944 3.69392077 3.1816185 5 6 C4.67 6.66 4.34 7.32 4 8 C3.01 7.67 2.02 7.34 1 7 C1 5.35 1 3.7 1 2 C-0.98 2.33 -2.96 2.66 -5 3 C-2.6 0 -2.6 0 0 0 Z " fill="#A686E2" transform="translate(288,250)"/>
<path d="M0 0 C2.58949269 1.29474635 2.96035764 2.32663393 4 5 C4.3125 7.5625 4.3125 7.5625 4 10 C3.01 10.99 2.02 11.98 1 13 C0.67 8.71 0.34 4.42 0 0 Z " fill="#AF91E7" transform="translate(352,240)"/>
<path d="M0 0 C0.66 0 1.32 0 2 0 C1.34 4.29 0.68 8.58 0 13 C-2 11 -2 11 -2.01171875 8.90625 C-1.90472656 8.1121875 -1.79773438 7.318125 -1.6875 6.5 C-1.58824219 5.7059375 -1.48898437 4.911875 -1.38671875 4.09375 C-1 2 -1 2 0 0 Z " fill="#9F7CE3" transform="translate(304,145)"/>
<path d="M0 0 C0.66 0.66 1.32 1.32 2 2 C-1.63 2 -5.26 2 -9 2 C-9.33 1.34 -9.66 0.68 -10 0 C-3.42391304 -1.3451087 -3.42391304 -1.3451087 0 0 Z " fill="#7B4ADF" transform="translate(238,357)"/>
<path d="M0 0 C0.66 0 1.32 0 2 0 C2 0.66 2 1.32 2 2 C3.32 2 4.64 2 6 2 C6 2.66 6 3.32 6 4 C3.69 4.33 1.38 4.66 -1 5 C-0.67 3.35 -0.34 1.7 0 0 Z " fill="#7D46EB" transform="translate(278,317)"/>
<path d="M0 0 C3.08089673 2.77280706 4.68775452 5.06326356 6 9 C5.01 8.67 4.02 8.34 3 8 C2.01 8 1.02 8 0 8 C0 5.36 0 2.72 0 0 Z " fill="#A17EE9" transform="translate(168,314)"/>
<path d="M0 0 C0 3 0 3 -2.375 5.6875 C-5 8 -5 8 -7 8 C-7.33 7.01 -7.66 6.02 -8 5 C-4.04 2.525 -4.04 2.525 0 0 Z " fill="#A282E4" transform="translate(265,263)"/>
<path d="M0 0 C3 1 3 1 5 4 C5.99 3.34 6.98 2.68 8 2 C8.33 2.99 8.66 3.98 9 5 C7.02 5.66 5.04 6.32 3 7 C3 6.01 3 5.02 3 4 C2.34 4 1.68 4 1 4 C0.67 2.68 0.34 1.36 0 0 Z " fill="#9873E3" transform="translate(213,127)"/>
<path d="M0 0 C1.9375 0.3125 1.9375 0.3125 4 1 C4.33 1.99 4.66 2.98 5 4 C4.67 4.66 4.34 5.32 4 6 C2.68 6 1.36 6 0 6 C0 4.02 0 2.04 0 0 Z " fill="#936AE5" transform="translate(227,101)"/>
<path d="M0 0 C0.60328125 0.34804688 1.2065625 0.69609375 1.828125 1.0546875 C0.3718705 1.72588299 -1.08695367 2.39150557 -2.546875 3.0546875 C-3.76503906 3.6115625 -3.76503906 3.6115625 -5.0078125 4.1796875 C-7.171875 5.0546875 -7.171875 5.0546875 -9.171875 5.0546875 C-9.171875 4.3946875 -9.171875 3.7346875 -9.171875 3.0546875 C-8.511875 3.0546875 -7.851875 3.0546875 -7.171875 3.0546875 C-7.171875 2.3946875 -7.171875 1.7346875 -7.171875 1.0546875 C-2.70649038 -1.17800481 -2.70649038 -1.17800481 0 0 Z " fill="#A27EE6" transform="translate(267.171875,389.9453125)"/>
<path d="M0 0 C3.75376152 1.25125384 4.24073289 2.5652404 6 6 C6 6.66 6 7.32 6 8 C4.68 7.34 3.36 6.68 2 6 C2 5.34 2 4.68 2 4 C1.34 4 0.68 4 0 4 C0 2.68 0 1.36 0 0 Z " fill="#9976E1" transform="translate(162,306)"/>
<path d="M0 0 C2.5 0.8125 2.5 0.8125 5 3 C5.46346554 6.69681924 5.28328381 10.29212965 5 14 C4.01 13.67 3.02 13.34 2 13 C2.66 13 3.32 13 4 13 C3.8028913 7.645406 3.8028913 7.645406 1.4375 3.125 C0.963125 2.75375 0.48875 2.3825 0 2 C0 1.34 0 0.68 0 0 Z " fill="#B192EA" transform="translate(211,244)"/>
<path d="M0 0 C2.64 0 5.28 0 8 0 C8 0.66 8 1.32 8 2 C8.99 2.33 9.98 2.66 11 3 C8.875 4.25 8.875 4.25 6 5 C2.6875 3.1875 2.6875 3.1875 0 1 C0 0.67 0 0.34 0 0 Z " fill="#9D73EA" transform="translate(188,242)"/>
<path d="M0 0 C4.75286041 4.29290618 4.75286041 4.29290618 5 8 C4.34 8.66 3.68 9.32 3 10 C2.67 9.01 2.34 8.02 2 7 C1.34 6.67 0.68 6.34 0 6 C0 4.02 0 2.04 0 0 Z " fill="#9A74E6" transform="translate(336,214)"/>
<path d="M0 0 C2 2 2 2 2.125 4.625 C2.08375 5.40875 2.0425 6.1925 2 7 C1.01 7 0.02 7 -1 7 C-0.67 6.01 -0.34 5.02 0 4 C-1.98 4 -3.96 4 -6 4 C-6 3.34 -6 2.68 -6 2 C-4.02 1.34 -2.04 0.68 0 0 Z " fill="#A885E9" transform="translate(287,213)"/>
<path d="M0 0 C1.875 1.5 1.875 1.5 3 3 C-1.33333333 3 -5.66666667 3 -10 3 C-8.0507107 -0.89857861 -3.87122854 -0.32260238 0 0 Z " fill="#AA8AE2" transform="translate(239,95)"/>
<path d="M0 0 C1.98 0 3.96 0 6 0 C6 3.76687864 5.76462683 4.91190305 4 8 C4 7.34 4 6.68 4 6 C3.01 5.67 2.02 5.34 1 5 C1.66 5 2.32 5 3 5 C3.33 3.68 3.66 2.36 4 1 C2.68 0.67 1.36 0.34 0 0 Z " fill="#A479EC" transform="translate(217,345)"/>
<path d="M0 0 C2.31 0.66 4.62 1.32 7 2 C7 2.66 7 3.32 7 4 C5.68 4.33 4.36 4.66 3 5 C3 4.34 3 3.68 3 3 C1.68 3 0.36 3 -1 3 C-0.67 2.01 -0.34 1.02 0 0 Z " fill="#8551E8" transform="translate(261,273)"/>
<path d="M0 0 C0 0.66 0 1.32 0 2 C-5.75 5 -5.75 5 -8 5 C-8.33 4.01 -8.66 3.02 -9 2 C-5.86501708 0.14223235 -3.62528568 -0.20140476 0 0 Z " fill="#9B75E3" transform="translate(285,267)"/>
<path d="M0 0 C3.93673644 1.31224548 6.22719294 2.91910327 9 6 C6.03 5.505 6.03 5.505 3 5 C2.67 4.01 2.34 3.02 2 2 C1.01 1.67 0.02 1.34 -1 1 C-0.67 0.67 -0.34 0.34 0 0 Z " fill="#A586E3" transform="translate(199,259)"/>
<path d="M0 0 C1.32 0.66 2.64 1.32 4 2 C1.03 3.65 -1.94 5.3 -5 7 C-5 4 -5 4 -3 2 C-2.01 2 -1.02 2 0 2 C0 1.34 0 0.68 0 0 Z " fill="#9E78E5" transform="translate(269,247)"/>
<path d="M0 0 C0.99552499 3.09718886 0.89921243 4.90271275 0 8 C0 8.99 0 9.98 0 11 C-1.5625 9.8125 -1.5625 9.8125 -3 8 C-2.73897585 4.51967799 -1.96602468 2.94903702 0 0 Z " fill="#AD8CE4" transform="translate(118,241)"/>
<path d="M0 0 C-3.12432397 2.52349243 -6.38060496 4.27256146 -10 6 C-10 3 -10 3 -8.375 1.3125 C-5.41801336 -0.32162419 -3.32820054 -0.22692276 0 0 Z " fill="#966FE1" transform="translate(299,233)"/>
<path d="M0 0 C1.65 0.33 3.3 0.66 5 1 C2.47211993 3.79872437 0.79588866 5.45773019 -3 6 C-3 5.34 -3 4.68 -3 4 C-2.34 4 -1.68 4 -1 4 C-0.67 2.68 -0.34 1.36 0 0 Z " fill="#9E77E7" transform="translate(289,178)"/>
<path d="M0 0 C0.33 0.99 0.66 1.98 1 3 C-0.98 3.99 -0.98 3.99 -3 5 C-3 5.99 -3 6.98 -3 8 C-3.99 7.67 -4.98 7.34 -6 7 C-2.25 1.125 -2.25 1.125 0 0 Z " fill="#9067E6" transform="translate(298,126)"/>
<path d="M0 0 C0.33 0.66 0.66 1.32 1 2 C1.66 2 2.32 2 3 2 C6 6.38461538 6 6.38461538 6 9 C4.68 8.67 3.36 8.34 2 8 C2 6.68 2 5.36 2 4 C1.34 4 0.68 4 0 4 C0 2.68 0 1.36 0 0 Z " fill="#9C78E3" transform="translate(239,110)"/>
<path d="M0 0 C0.66 0.33 1.32 0.66 2 1 C1.6875 2.9375 1.6875 2.9375 1 5 C0.01 5.33 -0.98 5.66 -2 6 C-2.33 6.66 -2.66 7.32 -3 8 C-3.33 6.68 -3.66 5.36 -4 4 C-2.68 3.67 -1.36 3.34 0 3 C0 2.01 0 1.02 0 0 Z " fill="#9C77E5" transform="translate(313,354)"/>
<path d="M0 0 C2.875 -0.125 2.875 -0.125 6 0 C6.66 0.66 7.32 1.32 8 2 C7.34 2 6.68 2 6 2 C6.33 2.99 6.66 3.98 7 5 C6.401875 4.690625 5.80375 4.38125 5.1875 4.0625 C2.91043228 2.89790296 2.91043228 2.89790296 0 2 C0 1.34 0 0.68 0 0 Z " fill="#9671E5" transform="translate(206,252)"/>
<path d="M0 0 C0 0.66 0 1.32 0 2 C0.66 2.33 1.32 2.66 2 3 C-0.64 3.99 -3.28 4.98 -6 6 C-6 4.68 -6 3.36 -6 2 C-2.25 0 -2.25 0 0 0 Z " fill="#986FE9" transform="translate(251,227)"/>
<path d="M0 0 C0.66 0 1.32 0 2 0 C1.34 3.63 0.68 7.26 0 11 C-0.33 11 -0.66 11 -1 11 C-1.33 8.03 -1.66 5.06 -2 2 C-1.34 2 -0.68 2 0 2 C0 1.34 0 0.68 0 0 Z " fill="#A683E5" transform="translate(307,134)"/>
<path d="M0 0 C0.99 0.33 1.98 0.66 3 1 C2.67 1.99 2.34 2.98 2 4 C1.01 4.33 0.02 4.66 -1 5 C-1.66 5.66 -2.32 6.32 -3 7 C-3.33 5.68 -3.66 4.36 -4 3 C-2.1875 1.4375 -2.1875 1.4375 0 0 Z " fill="#8045F3" transform="translate(194,262)"/>
<path d="M0 0 C2.4375 0.8125 2.4375 0.8125 5 2 C5.33 2.99 5.66 3.98 6 5 C5.34 5.66 4.68 6.32 4 7 C0 2.25 0 2.25 0 0 Z " fill="#9A73E9" transform="translate(120,254)"/>
<path d="M0 0 C0.33 0.99 0.66 1.98 1 3 C-0.65 4.65 -2.3 6.3 -4 8 C-4.33 7.34 -4.66 6.68 -5 6 C-2.59016393 1.29508197 -2.59016393 1.29508197 0 0 Z " fill="#9E79E3" transform="translate(132,220)"/>
<path d="M0 0 C2.375 0.1875 2.375 0.1875 5 1 C6.3125 3.5625 6.3125 3.5625 7 6 C3.63279613 4.60667426 2.0140476 3.0210714 0 0 Z " fill="#9A77E5" transform="translate(222,353)"/>
<path d="M0 0 C1.65 0 3.3 0 5 0 C3.02 2.31 1.04 4.62 -1 7 C-1.66 5.68 -2.32 4.36 -3 3 C-2.01 3 -1.02 3 0 3 C0 2.01 0 1.02 0 0 Z " fill="#9F7CE5" transform="translate(248,350)"/>
<path d="M0 0 C2.9375 0.375 2.9375 0.375 6 1 C6.33 1.66 6.66 2.32 7 3 C5.68 3 4.36 3 3 3 C2.67 3.66 2.34 4.32 2 5 C1.34 4.67 0.68 4.34 0 4 C0 2.68 0 1.36 0 0 Z " fill="#7B4ADE" transform="translate(267,310)"/>
<path d="M0 0 C1.98 0.495 1.98 0.495 4 1 C2.84826645 3.46800047 1.95216435 5.04783565 0 7 C-1.125 2.25 -1.125 2.25 0 0 Z " fill="#966DE5" transform="translate(346,255)"/>
<path d="M0 0 C1.98 0 3.96 0 6 0 C6 0.66 6 1.32 6 2 C4 3.625 4 3.625 2 5 C1.34 4.67 0.68 4.34 0 4 C0 2.68 0 1.36 0 0 Z " fill="#9B73E8" transform="translate(257,253)"/>
<path d="M0 0 C0.33 0.99 0.66 1.98 1 3 C1.66 3 2.32 3 3 3 C2.625 4.9375 2.625 4.9375 2 7 C1.01 7.495 1.01 7.495 0 8 C-0.38063221 5.6739143 -0.71269945 3.33944736 -1 1 C-0.67 0.67 -0.34 0.34 0 0 Z " fill="#895CE4" transform="translate(307,357)"/>
<path d="M0 0 C2.04119788 1.61594832 4.04072937 3.2856382 6 5 C6 5.66 6 6.32 6 7 C3 7 3 7 1.3125 5.75 C0 4 0 4 0 0 Z " fill="#9571E1" transform="translate(186,333)"/>
<path d="M0 0 C1.32 0.66 2.64 1.32 4 2 C1.63707344 4.52588702 0.33537489 5.88820837 -3 7 C-1.125 2.25 -1.125 2.25 0 0 Z " fill="#A17DEB" transform="translate(115,288)"/>
<path d="M0 0 C0.33 0 0.66 0 1 0 C1.3125 3.3125 1.3125 3.3125 1 7 C-1.5 8.9375 -1.5 8.9375 -4 10 C-2.66666667 6.66666667 -1.33333333 3.33333333 0 0 Z " fill="#AB86E8" transform="translate(128,265)"/>
<path d="M0 0 C0.66 0.33 1.32 0.66 2 1 C2 3.64 2 6.28 2 9 C1.01 8.67 0.02 8.34 -1 8 C-1 7.34 -1 6.68 -1 6 C-0.34 6 0.32 6 1 6 C0.649375 5.38125 0.29875 4.7625 -0.0625 4.125 C-0.371875 3.42375 -0.68125 2.7225 -1 2 C-0.67 1.34 -0.34 0.68 0 0 Z " fill="#794BDB" transform="translate(213,248)"/>
<path d="M0 0 C0.99 0.33 1.98 0.66 3 1 C4.1875 4.0625 4.1875 4.0625 5 7 C3.0625 6.3125 3.0625 6.3125 1 5 C0.25 2.375 0.25 2.375 0 0 Z " fill="#9F7CE6" transform="translate(319,187)"/>
<path d="M0 0 C-2.6855594 2.6855594 -5.37621328 3.06049974 -9 4 C-9 3.01 -9 2.02 -9 1 C-5.92677456 0.08941469 -3.19902639 -0.08886184 0 0 Z " fill="#AA8AE5" transform="translate(286,184)"/>
<path d="M0 0 C1.32 0.33 2.64 0.66 4 1 C3.67 2.65 3.34 4.3 3 6 C2.01 5.67 1.02 5.34 0 5 C0 3.35 0 1.7 0 0 Z " fill="#926CE7" transform="translate(165,143)"/>
<path d="M0 0 C0.66 0 1.32 0 2 0 C2.66 1.98 3.32 3.96 4 6 C3.34 6 2.68 6 2 6 C2 5.01 2 4.02 2 3 C0.35 3.66 -1.3 4.32 -3 5 C-1.125 1.125 -1.125 1.125 0 0 Z " fill="#B99FE5" transform="translate(274,109)"/>
<path d="M0 0 C1.32 0 2.64 0 4 0 C2.63016497 3.16115776 2.0109362 3.9927092 -1 6 C-1.042721 4.33388095 -1.04063832 2.66617115 -1 1 C-0.67 0.67 -0.34 0.34 0 0 Z " fill="#A880EB" transform="translate(318,348)"/>
<path d="M0 0 C0.99 1.32 1.98 2.64 3 4 C-0.63 3.67 -4.26 3.34 -8 3 C-8 2.67 -8 2.34 -8 2 C-5.36 1.34 -2.72 0.68 0 0 Z " fill="#AA8AE8" transform="translate(273,345)"/>
<path d="M0 0 C0.66 1.32 1.32 2.64 2 4 C1.34 4.66 0.68 5.32 0 6 C-0.99 6 -1.98 6 -3 6 C-1.125 1.125 -1.125 1.125 0 0 Z " fill="#9C7AE3" transform="translate(299,319)"/>
<path d="M0 0 C1.98 0.99 3.96 1.98 6 3 C5.67 3.66 5.34 4.32 5 5 C3.02 4.34 1.04 3.68 -1 3 C-0.67 2.01 -0.34 1.02 0 0 Z " fill="#A180E7" transform="translate(284,319)"/>
<path d="M0 0 C0.66 0.33 1.32 0.66 2 1 C0.515 3.475 0.515 3.475 -1 6 C-2.32 5.34 -3.64 4.68 -5 4 C-3.35 2.68 -1.7 1.36 0 0 Z " fill="#A682E3" transform="translate(194,313)"/>
<path d="M0 0 C1.32 0 2.64 0 4 0 C2.63016497 3.16115776 2.0109362 3.9927092 -1 6 C-0.67 4.02 -0.34 2.04 0 0 Z " fill="#A884E6" transform="translate(198,315)"/>
<path d="M0 0 C2.5 2.3125 2.5 2.3125 5 5 C5 5.99 5 6.98 5 8 C2.5 6.25 2.5 6.25 0 4 C0 2.68 0 1.36 0 0 Z " fill="#9974E6" transform="translate(165,266)"/>
<path d="M0 0 C0.33 1.32 0.66 2.64 1 4 C-0.65 4.33 -2.3 4.66 -4 5 C-4.33 4.01 -4.66 3.02 -5 2 C-4.360625 1.855625 -3.72125 1.71125 -3.0625 1.5625 C-1.02454854 1.18992819 -1.02454854 1.18992819 0 0 Z " fill="#8356E2" transform="translate(123,249)"/>
</svg>
